<svg xmlns="http://www.w3.org/2000/svg" xmlns:xlink="http://www.w3.org/1999/xlink" contentStyleType="text/css" height="225px" preserveAspectRatio="none" style="width:1177px;height:225px;background:#FFFFFF;" version="1.1" viewBox="0 0 1177 225" width="1177px" zoomAndPan="magnify"><title>Diagramme de cas d'utilisation &#8212; Service financier</title><defs/><g><text fill="#000000" font-family="Helvetica" font-size="14" font-weight="bold" lengthAdjust="spacing" textLength="339.4521" x="415.2739" y="20.7803">Diagramme de cas d'utilisation &#8212; Service financier</text><!--cluster Plateforme DGBE--><g id="cluster_Plateforme DGBE"><rect fill="none" height="140" rx="2.5" ry="2.5" style="stroke:#181818;stroke-width:1;" width="1033" x="138" y="13.0582"/><text fill="#000000" font-family="Helvetica" font-size="14" font-weight="bold" lengthAdjust="spacing" textLength="116.6963" x="596.1519" y="25.8385">Plateforme DGBE</text></g><!--entity Finance--><g id="elem_Finance"><ellipse cx="57.7446" cy="106.5582" fill="#EEFDF3" rx="8" ry="8" style="stroke:#0F904C;stroke-width:0.5;"/><path d="M57.7446,114.5582 L57.7446,141.5582 M44.7446,122.5582 L70.7446,122.5582 M57.7446,141.5582 L44.7446,156.5582 M57.7446,141.5582 L70.7446,156.5582 " fill="none" style="stroke:#0F904C;stroke-width:0.5;"/><text fill="#000000" font-family="Helvetica" font-size="14" lengthAdjust="spacing" textLength="103.4893" x="6" y="168.8385">Service financier</text></g><g id="elem_UC0"><ellipse cx="1101.727" cy="92.3036" fill="#EEFDF3" rx="61.727" ry="14.7454" style="stroke:#0F904C;stroke-width:0.5;"/><text fill="#000000" font-family="Helvetica" font-size="14" lengthAdjust="spacing" textLength="81.2793" x="1058.0873" y="94.9437">S'authentifier</text></g><g id="elem_UC1"><ellipse cx="837.0095" cy="92.0601" fill="#EEFDF3" rx="108.0095" ry="24.0019" style="stroke:#0F904C;stroke-width:0.5;"/><text fill="#000000" font-family="Helvetica" font-size="14" lengthAdjust="spacing" textLength="142.4131" x="762.803" y="87.7003">Consulter les &#233;tudiants</text><text fill="#000000" font-family="Helvetica" font-size="14" lengthAdjust="spacing" textLength="46.6963" x="810.6614" y="101.7003">retenus</text></g><g id="elem_UC2"><ellipse cx="527.469" cy="124.152" fill="#EEFDF3" rx="90.969" ry="20.5938" style="stroke:#0F904C;stroke-width:0.5;"/><text fill="#000000" font-family="Helvetica" font-size="14" lengthAdjust="spacing" textLength="149.4131" x="452.7625" y="125.9323">Enregistrer un paiement</text></g><g id="elem_UC3"><ellipse cx="527.3635" cy="62.2309" fill="#EEFDF3" rx="106.3635" ry="23.6727" style="stroke:#0F904C;stroke-width:0.5;"/><text fill="#000000" font-family="Helvetica" font-size="14" lengthAdjust="spacing" textLength="137.7168" x="455.5051" y="57.8711">Suivre les versements</text><text fill="#000000" font-family="Helvetica" font-size="14" lengthAdjust="spacing" textLength="136.1582" x="456.2844" y="71.8711">(cumul, reste &#224; payer)</text></g><g id="elem_UC4"><ellipse cx="236.7991" cy="120.818" fill="#EEFDF3" rx="81.7991" ry="18.7598" style="stroke:#0F904C;stroke-width:0.5;"/><text fill="#000000" font-family="Helvetica" font-size="14" lengthAdjust="spacing" textLength="129.1992" x="172.1995" y="122.5983">Annuler un paiement</text></g><g id="elem_UC5"><ellipse cx="236.8356" cy="61.0131" fill="#EEFDF3" rx="90.8356" ry="22.9549" style="stroke:#0F904C;stroke-width:0.5;"/><text fill="#000000" font-family="Helvetica" font-size="14" lengthAdjust="spacing" textLength="111.248" x="178.2116" y="56.6532">Imprimer les &#233;tats</text><text fill="#000000" font-family="Helvetica" font-size="14" lengthAdjust="spacing" textLength="77.0547" x="195.3083" y="70.6532">de paiement</text></g><polygon fill="#181818" points="779.8073,67.9745,772.9184,60.9358,775.1602,66.1295,769.9664,68.3712,779.8073,67.9745" style="stroke:#181818;stroke-width:1;"/><path d="M75.2174,97.834 C88.4208,73.3793 109.4008,43.3578 138,29.0582 C354.5673,-79.2254 650.6393,16.6928 774.2307,65.7605 " fill="none" style="stroke:#181818;stroke-width:1;"/><polygon fill="#181818" points="493.0868,144.6896,483.2834,145.6349,488.7337,147.1495,487.2191,152.5998,493.0868,144.6896" style="stroke:#181818;stroke-width:1;"/><path d="M104.8611,172.1373 C111.9407,176.1996 119.4235,179.7089 127,182.0582 C244.1633,218.3882 283.2774,208.7716 403,182.0582 C435.2513,174.8621 463.8021,161.2379 487.8631,147.6415 " fill="none" style="stroke:#181818;stroke-width:1;"/><polygon fill="#181818" points="435.0124,85.6911,425.2074,86.6197,430.6552,88.1435,429.1314,93.5913,435.0124,85.6911" style="stroke:#181818;stroke-width:1;"/><path d="M109.2184,145.3468 C118.7427,146.8924 128.646,148.2409 138,149.0582 C222.1239,156.4088 244.4885,161.5756 328,149.0582 C362.4804,143.89 375.6965,147.7405 403,126.0582 C415.4765,116.1504 408.5513,105.0009 421,95.0582 C425.3486,91.585 424.8372,91.4181 429.7837,88.634 " fill="none" style="stroke:#181818;stroke-width:1;"/><polygon fill="#181818" points="160.8704,84.1302,151.0458,83.4387,156.17,85.8351,153.7736,90.9593,160.8704,84.1302" style="stroke:#181818;stroke-width:1;"/><path d="M109.1965,106.6365 C118.6352,101.8167 128.5141,97.078 138,93.0582 C145.3333,89.9506 147.4379,89.0023 155.2299,86.1761 " fill="none" style="stroke:#181818;stroke-width:1;"/><polygon fill="#181818" points="1039.9656,92.0582,1030.9656,88.0582,1034.9656,92.0582,1030.9656,96.0582,1039.9656,92.0582" style="stroke:#181818;stroke-width:1;"/><path d="M945.1474,92.0582 C977.47,92.0582 1005.8122,92.0582 1033.9656,92.0582 " fill="none" style="stroke:#181818;stroke-width:1;stroke-dasharray:7.0,7.0;"/><text fill="#000000" font-family="Helvetica" font-size="13" lengthAdjust="spacing" textLength="55.6563" x="965" y="87.0685">&#171;include&#187;</text><polygon fill="#181818" points="728.98,103.1953,719.6143,100.1483,724.0069,103.7128,720.4424,108.1053,728.98,103.1953" style="stroke:#181818;stroke-width:1;"/><path d="M618.6824,114.6734 C653.2395,111.0772 687.0288,107.5609 723.0122,103.8163 " fill="none" style="stroke:#181818;stroke-width:1;stroke-dasharray:7.0,7.0;"/><text fill="#000000" font-family="Helvetica" font-size="13" lengthAdjust="spacing" textLength="55.6563" x="654" y="100.0685">&#171;include&#187;</text><polygon fill="#181818" points="436.3526,123.1208,427.3947,119.0274,431.3529,123.0688,427.3115,127.027,436.3526,123.1208" style="stroke:#181818;stroke-width:1;"/><path d="M319.1311,121.9019 C355.6301,122.2814 392.8452,122.6684 430.3529,123.0584 " fill="none" style="stroke:#181818;stroke-width:1;stroke-dasharray:7.0,7.0;"/><text fill="#000000" font-family="Helvetica" font-size="13" lengthAdjust="spacing" textLength="53.4917" x="348" y="117.0685">&#171;extend&#187;</text><polygon fill="#181818" points="420.9334,61.6923,411.9474,57.6611,415.9335,61.675,411.9196,65.6611,420.9334,61.6923" style="stroke:#181818;stroke-width:1;"/><path d="M328.0965,61.3705 C357.5253,61.4725 384.472,61.5659 414.9335,61.6715 " fill="none" style="stroke:#181818;stroke-width:1;stroke-dasharray:7.0,7.0;"/><text fill="#000000" font-family="Helvetica" font-size="13" lengthAdjust="spacing" textLength="53.4917" x="348" y="57.0685">&#171;extend&#187;</text><!--SRC=[dP9DRjH048NtVOh2B48a4atcPm6AHY8pOs23a29ssHJkigUKTlUekdeWGaWSWWEmvHov2IUXRHpXcR32k_BtwbNLKp_P2JOjWiExa1HYIueUZR8wWZLZ8zYs19QWmWZs92axZgWSFFpwzXskIVPS4TJiqLTCOaoyPR_3t0SViRfj92HlLy45WQTb_uqKSOisV6BVG8qkqeXOgZ4vBOFNTvWtADwGsvDoXSL8bIBblGY-682huscRJRakPnq9Oac6lvFonMI-Cbz7BbXf9l_ZOHpL2Xf0kDagM1QgkcoC-UDPFCgdW9nZsLTaJ2T7t-IiY_SEbUeW-TRrwwjDqU_pS5znVO99j-ILwmUJ3wl9MB4AFkR0IC1HXFkVcYoZrtZZXPHyYaFJnRXfas73KIMt9GyxP6hpa44wFTWWyLweDz-Jn5wNpPzLgKtkEGX59RZ_aJtkI4u7XzdOuPNtoVrpq7miUzlkXDk_Ts0t9Z_0evv55_yG99oTBVlJ3klfKJqxgXV6v2OuF- -A2Ro4oqlsbKkMbijCfWEvU4Jc0vdsX3xdV6qF5WEO7OBV]--></g></svg>