<svg xmlns="http://www.w3.org/2000/svg" xmlns:xlink="http://www.w3.org/1999/xlink" contentStyleType="text/css" height="446px" preserveAspectRatio="none" style="width:870px;height:446px;background:#FFFFFF;" version="1.1" viewBox="0 0 870 446" width="870px" zoomAndPan="magnify"><title>Diagramme de cas d'utilisation &#8212; Administrateur</title><defs/><g><text fill="#000000" font-family="Helvetica" font-size="14" font-weight="bold" lengthAdjust="spacing" textLength="326.9629" x="268.0186" y="20.7803">Diagramme de cas d'utilisation &#8212; Administrateur</text><!--cluster Plateforme DGBE--><g id="cluster_Plateforme DGBE"><rect fill="none" height="401" rx="2.5" ry="2.5" style="stroke:#181818;stroke-width:1;" width="739" x="125" y="39"/><text fill="#000000" font-family="Helvetica" font-size="14" font-weight="bold" lengthAdjust="spacing" textLength="116.6963" x="436.1519" y="51.7803">Plateforme DGBE</text></g><!--entity Admin--><g id="elem_Admin"><ellipse cx="51.1274" cy="222.5" fill="#EEFDF3" rx="8" ry="8" style="stroke:#0F904C;stroke-width:0.5;"/><path d="M51.1274,230.5 L51.1274,257.5 M38.1274,238.5 L64.1274,238.5 M51.1274,257.5 L38.1274,272.5 M51.1274,257.5 L64.1274,272.5 " fill="none" style="stroke:#0F904C;stroke-width:0.5;"/><text fill="#000000" font-family="Helvetica" font-size="14" lengthAdjust="spacing" textLength="90.2549" x="6" y="284.7803">Administrateur</text></g><g id="elem_UC0"><ellipse cx="794.727" cy="253.2454" fill="#EEFDF3" rx="61.727" ry="14.7454" style="stroke:#0F904C;stroke-width:0.5;"/><text fill="#000000" font-family="Helvetica" font-size="14" lengthAdjust="spacing" textLength="81.2793" x="751.0873" y="255.8855">S'authentifier</text></g><g id="elem_UC1"><ellipse cx="516.1948" cy="87.139" fill="#EEFDF3" rx="103.6948" ry="23.139" style="stroke:#0F904C;stroke-width:0.5;"/><text fill="#000000" font-family="Helvetica" font-size="14" lengthAdjust="spacing" textLength="128.3789" x="448.2312" y="82.7791">G&#233;rer les utilisateurs</text><text fill="#000000" font-family="Helvetica" font-size="14" lengthAdjust="spacing" textLength="131.4756" x="446.6828" y="96.7791">(r&#244;les &amp; permissions)</text></g><g id="elem_UC2"><ellipse cx="516.0141" cy="218.8028" fill="#EEFDF3" rx="122.0141" ry="26.8028" style="stroke:#0F904C;stroke-width:0.5;"/><text fill="#000000" font-family="Helvetica" font-size="14" lengthAdjust="spacing" textLength="154.8408" x="438.5936" y="213.5831">G&#233;rer les &#233;tablissements</text><text fill="#000000" font-family="Helvetica" font-size="14" lengthAdjust="spacing" textLength="180.5029" x="425.7626" y="227.5831">(universit&#233;s, facult&#233;s, fili&#232;res)</text></g><g id="elem_UC3"><ellipse cx="516.0253" cy="286.9402" fill="#EEFDF3" rx="88.0253" ry="22.9402" style="stroke:#0F904C;stroke-width:0.5;"/><text fill="#000000" font-family="Helvetica" font-size="14" lengthAdjust="spacing" textLength="107.3926" x="459.3291" y="282.5803">G&#233;rer les ann&#233;es</text><text fill="#000000" font-family="Helvetica" font-size="14" lengthAdjust="spacing" textLength="83.2754" x="471.3876" y="296.5803">acad&#233;miques</text></g><g id="elem_UC4"><ellipse cx="515.9372" cy="350.8856" fill="#EEFDF3" rx="78.9372" ry="22.8856" style="stroke:#0F904C;stroke-width:0.5;"/><text fill="#000000" font-family="Helvetica" font-size="14" lengthAdjust="spacing" textLength="94.9238" x="465.4753" y="346.5257">G&#233;rer les types</text><text fill="#000000" font-family="Helvetica" font-size="14" lengthAdjust="spacing" textLength="69.2686" x="478.3029" y="360.5257">de bourses</text></g><g id="elem_UC5"><ellipse cx="516.2476" cy="411.9495" fill="#EEFDF3" rx="87.7476" ry="19.9495" style="stroke:#0F904C;stroke-width:0.5;"/><text fill="#000000" font-family="Helvetica" font-size="14" lengthAdjust="spacing" textLength="142.3652" x="445.065" y="413.7298">G&#233;rer les commissions</text></g><g id="elem_UC6"><ellipse cx="515.8163" cy="150.8164" fill="#EEFDF3" rx="69.3163" ry="22.8164" style="stroke:#0F904C;stroke-width:0.5;"/><text fill="#000000" font-family="Helvetica" font-size="14" lengthAdjust="spacing" textLength="81.7031" x="473.0006" y="146.1836">Consulter les</text><text fill="#000000" font-family="Helvetica" font-size="14" lengthAdjust="spacing" textLength="70.0342" x="478.8351" y="160.1836">statistiques</text></g><g id="elem_UC7"><ellipse cx="217.2396" cy="83.2479" fill="#EEFDF3" rx="84.2396" ry="19.2479" style="stroke:#0F904C;stroke-width:0.5;"/><text fill="#000000" font-family="Helvetica" font-size="14" lengthAdjust="spacing" textLength="134.627" x="149.9261" y="85.0282">Produire des rapports</text></g><g id="elem_UC8"><ellipse cx="216.8163" cy="142.8164" fill="#EEFDF3" rx="69.3163" ry="22.8164" style="stroke:#0F904C;stroke-width:0.5;"/><text fill="#000000" font-family="Helvetica" font-size="14" lengthAdjust="spacing" textLength="81.7031" x="174.0006" y="138.1836">Superviser la</text><text fill="#000000" font-family="Helvetica" font-size="14" lengthAdjust="spacing" textLength="66.1445" x="181.7799" y="152.1836">plateforme</text></g><polygon fill="#181818" points="417.7499,110.0944,407.9458,109.1564,413.0082,111.6807,410.4839,116.7431,417.7499,110.0944" style="stroke:#181818;stroke-width:1;"/><path d="M96.3696,230.8969 C105.725,227.0154 115.6083,223.1745 125,220 C201.4874,194.1468 226.5146,206.1552 301,175 C345.5115,156.382 349.5654,137.8008 394,119 C401.6044,115.7825 403.9273,114.7186 412.0599,111.998 " fill="none" style="stroke:#181818;stroke-width:1;"/><polygon fill="#181818" points="393.8946,243.8287,384.4346,241.0883,388.9409,244.5079,385.5214,249.0142,393.8946,243.8287" style="stroke:#181818;stroke-width:1;"/><path d="M96.1673,252.7756 C158.6656,254.7304 276.4004,256.3599 376,246 C381.8683,245.3896 381.9135,245.4714 387.9502,244.6437 " fill="none" style="stroke:#181818;stroke-width:1;"/><polygon fill="#181818" points="427.8393,280.9306,419.1446,276.3043,422.8518,280.5771,418.579,284.2843,427.8393,280.9306" style="stroke:#181818;stroke-width:1;"/><path d="M96.3779,255.4437 C105.8214,256.3366 115.7374,257.2346 125,258 C229.0344,266.5962 342.795,274.9031 421.8543,280.5064 " fill="none" style="stroke:#181818;stroke-width:1;"/><polygon fill="#181818" points="436.6581,338.7005,428.4333,333.2828,431.7254,337.883,427.1252,341.1751,436.6581,338.7005" style="stroke:#181818;stroke-width:1;"/><path d="M96.1307,266.4917 C105.5909,269.5357 115.5761,272.543 125,275 C231.8008,302.8457 351.5251,324.5907 430.7389,337.7195 " fill="none" style="stroke:#181818;stroke-width:1;"/><polygon fill="#181818" points="428.4969,403.3746,420.1068,398.2164,423.5411,402.7115,419.0459,406.1457,428.4969,403.3746" style="stroke:#181818;stroke-width:1;"/><path d="M86.0266,288.1397 C97.4921,298.8056 110.9641,309.5523 125,317 C221.6474,368.2828 340.4881,391.5992 422.5499,402.5789 " fill="none" style="stroke:#181818;stroke-width:1;"/><polygon fill="#181818" points="446.4728,160.4967,436.7541,158.901,441.6351,161.7603,438.7758,166.6413,446.4728,160.4967" style="stroke:#181818;stroke-width:1;"/><path d="M96.2945,247.0833 C179.3909,239.4505 352.4473,222.0977 376,208 C387.7478,200.9682 382.7205,190.7608 394,183 C409.4845,172.3459 422.5142,166.7545 440.6676,162.013 " fill="none" style="stroke:#181818;stroke-width:1;"/><polygon fill="#181818" points="138.2467,102.023,128.4366,102.8958,133.8756,104.4506,132.3208,109.8896,138.2467,102.023" style="stroke:#181818;stroke-width:1;"/><path d="M62.3957,213.9685 C73.1195,182.3089 92.8756,137.7479 125,111 C129.0649,107.6154 128.2901,107.5527 133.0013,104.9361 " fill="none" style="stroke:#181818;stroke-width:1;"/><polygon fill="#181818" points="147.2587,162.5017,137.4134,162.2366,142.6367,164.4087,140.4646,169.6319,147.2587,162.5017" style="stroke:#181818;stroke-width:1;"/><path d="M78.2725,213.9709 C88.3325,201.8462 100.6331,189.1541 114,180 C124.1024,173.0816 130.104,169.5794 141.7122,164.7901 " fill="none" style="stroke:#181818;stroke-width:1;"/><polygon fill="#181818" points="781.6796,238.3096,779.0212,228.8263,778.491,234.4582,772.8591,233.928,781.6796,238.3096" style="stroke:#181818;stroke-width:1;"/><path d="M615.0109,110.0351 C622.8969,112.7574 630.6499,115.742 638,119 C675.3038,135.5351 683.7275,142.7889 715,169 C741.0058,190.7968 763.2632,216.0654 777.8533,233.688 " fill="none" style="stroke:#181818;stroke-width:1;stroke-dasharray:7.0,7.0;"/><text fill="#000000" font-family="Helvetica" font-size="13" lengthAdjust="spacing" textLength="55.6563" x="658" y="124.0103">&#171;include&#187;</text><polygon fill="#181818" points="732.6351,245.5157,724.1906,240.4472,727.6725,244.9055,723.2142,248.3874,732.6351,245.5157" style="stroke:#181818;stroke-width:1;"/><path d="M638.2769,233.9129 C670.9248,237.9275 698.8997,241.3674 726.68,244.7834 " fill="none" style="stroke:#181818;stroke-width:1;stroke-dasharray:7.0,7.0;"/><text fill="#000000" font-family="Helvetica" font-size="13" lengthAdjust="spacing" textLength="55.6563" x="658" y="232.0103">&#171;include&#187;</text><polygon fill="#181818" points="732.6497,260.7887,723.2199,257.9464,727.689,261.4144,724.221,265.8835,732.6497,260.7887" style="stroke:#181818;stroke-width:1;"/><path d="M604.2468,276.5407 C638.7483,272.3742 678.7479,267.5061 715,263 C720.7261,262.2882 720.7335,262.2917 726.6968,261.5395 " fill="none" style="stroke:#181818;stroke-width:1;stroke-dasharray:7.0,7.0;"/><text fill="#000000" font-family="Helvetica" font-size="13" lengthAdjust="spacing" textLength="55.6563" x="658" y="258.0103">&#171;include&#187;</text><polygon fill="#181818" points="763.9329,267.6235,754.0889,267.9318,759.4297,269.7962,757.5653,275.137,763.9329,267.6235" style="stroke:#181818;stroke-width:1;"/><path d="M595.1217,331.5879 C609.4581,327.6724 624.2361,323.3994 638,319 C672.8328,307.8663 681.3224,304.2515 715,290 C731.3728,283.0714 743.9264,277.2763 758.5291,270.2308 " fill="none" style="stroke:#181818;stroke-width:1;stroke-dasharray:7.0,7.0;"/><text fill="#000000" font-family="Helvetica" font-size="13" lengthAdjust="spacing" textLength="55.6563" x="658" y="285.0103">&#171;include&#187;</text><polygon fill="#181818" points="781.0893,267.765,772.1771,271.957,777.8191,271.5473,778.2289,277.1893,781.0893,267.765" style="stroke:#181818;stroke-width:1;"/><path d="M603.737,394.9243 C615.4528,391.5483 627.1608,387.5953 638,383 C675.3463,367.167 683.5583,359.6291 715,334 C740.5007,313.2136 762.4146,289.3643 777.1651,272.3038 " fill="none" style="stroke:#181818;stroke-width:1;stroke-dasharray:7.0,7.0;"/><text fill="#000000" font-family="Helvetica" font-size="13" lengthAdjust="spacing" textLength="55.6563" x="658" y="329.0103">&#171;include&#187;</text><polygon fill="#181818" points="763.0474,238.3383,756.6402,230.8585,758.5328,236.1894,753.2019,238.0819,763.0474,238.3383" style="stroke:#181818;stroke-width:1;"/><path d="M585.6782,167.2961 C602.9098,171.8942 621.2562,177.2327 638,183 C673.2029,195.1255 681.044,200.7271 715,216 C730.939,223.1691 743.1335,228.8594 757.6298,235.7596 " fill="none" style="stroke:#181818;stroke-width:1;stroke-dasharray:7.0,7.0;"/><text fill="#000000" font-family="Helvetica" font-size="13" lengthAdjust="spacing" textLength="55.6563" x="658" y="185.0103">&#171;include&#187;</text><polygon fill="#181818" points="446.4259,135.2995,438.5456,129.3918,441.552,134.1836,436.7601,137.19,446.4259,135.2995" style="stroke:#181818;stroke-width:1;"/><path d="M301.126,102.0322 C346.9452,112.5228 397.2899,124.0495 440.5772,133.9604 " fill="none" style="stroke:#181818;stroke-width:1;stroke-dasharray:7.0,7.0;"/><text fill="#000000" font-family="Helvetica" font-size="13" lengthAdjust="spacing" textLength="53.4917" x="321" y="102.0103">&#171;extend&#187;</text><!--SRC=[dL9BZjD04DttAGeZCI0nep3v3MWKYSbdMA6HHkoogRWhJcliRjDT3aG8YKDm2BBd1hu99w6SE96Dv0rUkUgzVlNgyoptc6G8AUvSmH0oOhIes71AC3EOUCmo0aqGOm1zKR19JK0spiAV7p_XlSwCDO4zCXLUgV1aR8xo25OOFoNU5LPFNUeyF5ySlWOZR52xByOciCOqK0FHjCOYvOMp_16bVFI1qYsnYJ5gi7AfW0azyawyUeh5UP8sPOf0ufhWcmAu-zVEVBwOBVeLuhmcNsTxYxUzmLHzRwXWp8ByZuPAQSt03hn9DWpQL2PbSaeTDQFsz2AG4HzIIftRWUWX5NJjlCnXTdytZmvMJgr5ZnTOy8OicxMXeyIdQQ_9k2_tdZoa5E2qFIaMblQbBtzNsHUGayzC268jlAebtdH8b7l6bOW4ogHefL9OioKV39Vxy5fM6SlcZhzIhFpbwQnvtQ69rfPx4YsCKPVxp7mkADHl-XrlU9TNB-GmLqwwEVC77VpOPQSMQ-QmoPnANdmVoKiRM4uySDF8g4b_y4uNiawvr00UyznvFX77hVKKCjkj2PKmBcr-tcLDlgdEvB1pkBoS7ERUZAvRKRyL3LhHi1MDMj6u5Tqe9MNWwgeAUl0ERc-DZTD2qsGYo7Kdqkz41ft8i1CPTIBZ6XaT4FhAPBK0Vm40]--></g></svg>