<svg xmlns="http://www.w3.org/2000/svg" xmlns:xlink="http://www.w3.org/1999/xlink" contentStyleType="text/css" height="323px" preserveAspectRatio="none" style="width:1335px;height:323px;background:#FFFFFF;" version="1.1" viewBox="0 0 1335 323" width="1335px" zoomAndPan="magnify"><title>Diagramme de cas d'utilisation &#8212; Commission</title><defs/><g><text fill="#000000" font-family="Helvetica" font-size="14" font-weight="bold" lengthAdjust="spacing" textLength="311.4043" x="504.2979" y="20.7803">Diagramme de cas d'utilisation &#8212; Commission</text><!--cluster Plateforme DGBE--><g id="cluster_Plateforme DGBE"><rect fill="none" height="196" rx="2.5" ry="2.5" style="stroke:#181818;stroke-width:1;" width="1315" x="14" y="121"/><text fill="#000000" font-family="Helvetica" font-size="14" font-weight="bold" lengthAdjust="spacing" textLength="116.6963" x="613.1519" y="133.7803">Plateforme DGBE</text></g><!--entity Commission--><g id="elem_Commission"><ellipse cx="410.0068" cy="47.5" fill="#EEFDF3" rx="8" ry="8" style="stroke:#0F904C;stroke-width:0.5;"/><path d="M410.0068,55.5 L410.0068,82.5 M397.0068,63.5 L423.0068,63.5 M410.0068,82.5 L397.0068,97.5 M410.0068,82.5 L423.0068,97.5 " fill="none" style="stroke:#0F904C;stroke-width:0.5;"/><text fill="#000000" font-family="Helvetica" font-size="14" lengthAdjust="spacing" textLength="77.0137" x="371.5" y="109.7803">Commission</text></g><g id="elem_UC0"><ellipse cx="1259.727" cy="170.2454" fill="#EEFDF3" rx="61.727" ry="14.7454" style="stroke:#0F904C;stroke-width:0.5;"/><text fill="#000000" font-family="Helvetica" font-size="14" lengthAdjust="spacing" textLength="81.2793" x="1216.0873" y="172.8855">S'authentifier</text></g><g id="elem_UC1"><ellipse cx="996.3659" cy="170.1732" fill="#EEFDF3" rx="106.3659" ry="23.6732" style="stroke:#0F904C;stroke-width:0.5;"/><text fill="#000000" font-family="Helvetica" font-size="14" lengthAdjust="spacing" textLength="137.7236" x="924.5041" y="165.8133">Consulter les dossiers</text><text fill="#000000" font-family="Helvetica" font-size="14" lengthAdjust="spacing" textLength="52.8965" x="966.9177" y="179.8133">transmis</text></g><g id="elem_UC2"><ellipse cx="699.9203" cy="169.8841" fill="#EEFDF3" rx="94.9203" ry="21.3841" style="stroke:#0F904C;stroke-width:0.5;"/><text fill="#000000" font-family="Helvetica" font-size="14" lengthAdjust="spacing" textLength="157.9922" x="620.9242" y="171.6643">Statuer sur une demande</text></g><g id="elem_UC3"><ellipse cx="410.2119" cy="169.0061" fill="#EEFDF3" rx="102.2119" ry="23.0061" style="stroke:#0F904C;stroke-width:0.5;"/><text fill="#000000" font-family="Helvetica" font-size="14" lengthAdjust="spacing" textLength="126.8545" x="343.7846" y="164.6462">Attribuer une bourse</text><text fill="#000000" font-family="Helvetica" font-size="14" lengthAdjust="spacing" textLength="63.0205" x="375.7016" y="178.6462">(accepter)</text></g><g id="elem_UC4"><ellipse cx="118.5262" cy="168.982" fill="#EEFDF3" rx="96.5262" ry="22.982" style="stroke:#0F904C;stroke-width:0.5;"/><text fill="#000000" font-family="Helvetica" font-size="14" lengthAdjust="spacing" textLength="119.0547" x="55.9988" y="164.6221">Modifier le montant</text><text fill="#000000" font-family="Helvetica" font-size="14" lengthAdjust="spacing" textLength="49.8066" x="90.6228" y="178.6221">accord&#233;</text></g><g id="elem_UC5"><ellipse cx="410.0082" cy="230.1016" fill="#EEFDF3" rx="86.0082" ry="19.6016" style="stroke:#0F904C;stroke-width:0.5;"/><text fill="#000000" font-family="Helvetica" font-size="14" lengthAdjust="spacing" textLength="138.5371" x="340.7396" y="231.8819">Refuser une demande</text></g><g id="elem_UC6"><ellipse cx="409.764" cy="287.9528" fill="#EEFDF3" rx="90.264" ry="20.4528" style="stroke:#0F904C;stroke-width:0.5;"/><text fill="#000000" font-family="Helvetica" font-size="14" lengthAdjust="spacing" textLength="147.875" x="335.8265" y="289.7331">Ajouter une observation</text></g><polygon fill="#181818" points="889.7417,151.9354,881.5214,146.5109,884.8097,151.1138,880.2068,154.4022,889.7417,151.9354" style="stroke:#181818;stroke-width:1;"/><path d="M448.67,81.8164 C527.3517,93.998 714.876,123.2017 872,149 C877.7946,149.9514 877.8222,149.9498 883.8233,150.9495 " fill="none" style="stroke:#181818;stroke-width:1;"/><polygon fill="#181818" points="632.9693,148.4483,625.6546,141.8532,628.2161,146.8969,623.1724,149.4584,632.9693,148.4483" style="stroke:#181818;stroke-width:1;"/><path d="M448.651,88.2889 C495.3837,103.5419 570.1765,127.9534 627.2654,146.5866 " fill="none" style="stroke:#181818;stroke-width:1;"/><polygon fill="#181818" points="1197.9474,170,1188.9474,166,1192.9474,170,1188.9474,174,1197.9474,170" style="stroke:#181818;stroke-width:1;"/><path d="M1103.2824,170 C1135.5001,170 1163.8041,170 1191.9474,170 " fill="none" style="stroke:#181818;stroke-width:1;stroke-dasharray:7.0,7.0;"/><text fill="#000000" font-family="Helvetica" font-size="13" lengthAdjust="spacing" textLength="55.6563" x="1123" y="165.0103">&#171;include&#187;</text><polygon fill="#181818" points="889.8864,170,880.8864,166,884.8864,170,880.8864,174,889.8864,170" style="stroke:#181818;stroke-width:1;"/><path d="M795.3968,170 C825.5122,170 853.0283,170 883.8864,170 " fill="none" style="stroke:#181818;stroke-width:1;stroke-dasharray:7.0,7.0;"/><text fill="#000000" font-family="Helvetica" font-size="13" lengthAdjust="spacing" textLength="55.6563" x="815" y="165.0103">&#171;include&#187;</text><polygon fill="#181818" points="604.8646,169.6731,595.8786,165.6419,599.8647,169.6558,595.8508,173.6419,604.8646,169.6731" style="stroke:#181818;stroke-width:1;"/><path d="M512.1331,169.3512 C542.2797,169.4558 569.1844,169.5493 598.8647,169.6523 " fill="none" style="stroke:#181818;stroke-width:1;stroke-dasharray:7.0,7.0;"/><text fill="#000000" font-family="Helvetica" font-size="13" lengthAdjust="spacing" textLength="53.4917" x="532" y="164.0103">&#171;extend&#187;</text><polygon fill="#181818" points="307.5373,169,298.5373,165,302.5373,169,298.5373,173,307.5373,169" style="stroke:#181818;stroke-width:1;"/><path d="M215.0955,169 C244.7409,169 271.5078,169 301.5373,169 " fill="none" style="stroke:#181818;stroke-width:1;stroke-dasharray:7.0,7.0;"/><text fill="#000000" font-family="Helvetica" font-size="13" lengthAdjust="spacing" textLength="53.4917" x="235" y="164.0103">&#171;extend&#187;</text><polygon fill="#181818" points="604.9113,189.6018,595.2847,187.5215,600.0164,190.6216,596.9163,195.3533,604.9113,189.6018" style="stroke:#181818;stroke-width:1;"/><path d="M496.2405,212.2416 C530.4093,205.1231 564.0318,198.1184 599.0375,190.8255 " fill="none" style="stroke:#181818;stroke-width:1;stroke-dasharray:7.0,7.0;"/><text fill="#000000" font-family="Helvetica" font-size="13" lengthAdjust="spacing" textLength="53.4917" x="532" y="189.0103">&#171;extend&#187;</text><polygon fill="#181818" points="659.0181,191.5071,649.1885,192.1242,654.5852,193.8201,652.8894,199.2168,659.0181,191.5071" style="stroke:#181818;stroke-width:1;"/><path d="M487.2512,267.4968 C495.6641,264.8235 504.0551,261.9734 512,259 C564.1942,239.4661 616.4179,213.7354 653.6987,194.2827 " fill="none" style="stroke:#181818;stroke-width:1;stroke-dasharray:7.0,7.0;"/><text fill="#000000" font-family="Helvetica" font-size="13" lengthAdjust="spacing" textLength="53.4917" x="532" y="222.0103">&#171;extend&#187;</text><!--SRC=[dL9BRXGn4DttAOhE8h18D9cPH2AAHY8zqx01eI1siwbfL_SuSTiZknn028b3v1ASWvjmabGtHd5-6thLhlTUrVChlzXvx7e4WzzSP0WzCLeiMBCXM6hiFFOzWI9eC83QZwoD3iZQMVZpymOgr_Sw13aMHRZITeSYW0qsLvrtqQhA6UTXhnw_Z16sgDmNRJjeqGJA44KjHiEri_m1PNJvZimriMwmp5Wna1WY-5u0d3-SjbhLotes8CuhygawgLzFvbNn8-k23GloFpqAGoq3E_2wsp8exQdXCOM_FSkxO4gGvFAS1YhQJW8kFnfaQfsNUoxVdg_AqSk_kvMVzZ7obYphLfCV-tok9ZcZSZP8MEJ1aAp7oGJoOMtPemqoC6cExdLbv2YA43r4E-osHwieKQSvzGsprvk1F10tBlf0Q_iIcuPsClHLqinopNkdHhlY27fP8bfUMr58ZBz_9S4y5rnGA_zFUJc-v-LI7cYYkOq8hiTNcAWdmqxkGeQ3WyLuxqUbQL587GuFXyC4Jk7iJDl6H4MBXI3JX1mzGcO9cOu8VMMoQWJc2PWz18wVKvmy3Tm2]--></g></svg>