<svg xmlns="http://www.w3.org/2000/svg" xmlns:xlink="http://www.w3.org/1999/xlink" contentStyleType="text/css" height="429px" preserveAspectRatio="none" style="width:827px;height:429px;background:#FFFFFF;" version="1.1" viewBox="0 0 827 429" width="827px" zoomAndPan="magnify"><defs/><g><!--cluster Plateforme DGBE--><g id="cluster_Plateforme DGBE"><rect fill="none" height="377" rx="2.5" ry="2.5" style="stroke:#181818;stroke-width:1;" width="735" x="86" y="-97.4792"/><text fill="#000000" font-family="Helvetica" font-size="14" font-weight="bold" lengthAdjust="spacing" textLength="116.6963" x="395.1519" y="-84.6989">Plateforme DGBE</text></g><!--entity Etudiant--><g id="elem_Etudiant"><ellipse cx="31.686" cy="220.0208" fill="#EEFDF3" rx="8" ry="8" style="stroke:#0F904C;stroke-width:0.5;"/><path d="M31.686,228.0208 L31.686,255.0208 M18.686,236.0208 L44.686,236.0208 M31.686,255.0208 L18.686,270.0208 M31.686,255.0208 L44.686,270.0208 " fill="none" style="stroke:#0F904C;stroke-width:0.5;"/><text fill="#000000" font-family="Helvetica" font-size="14" lengthAdjust="spacing" textLength="51.3721" x="6" y="282.3011">&#201;tudiant</text></g><g id="elem_UC1"><ellipse cx="188.8606" cy="-55.4071" fill="#EEFDF3" rx="70.8606" ry="16.5721" style="stroke:#0F904C;stroke-width:0.5;"/><text fill="#000000" font-family="Helvetica" font-size="14" lengthAdjust="spacing" textLength="104.2686" x="136.3755" y="-53.5103">Cr&#233;er un compte</text></g><g id="elem_UC0"><ellipse cx="751.727" cy="191.7662" fill="#EEFDF3" rx="61.727" ry="14.7454" style="stroke:#0F904C;stroke-width:0.5;"/><text fill="#000000" font-family="Helvetica" font-size="14" lengthAdjust="spacing" textLength="81.2793" x="708.0873" y="194.4063">S'authentifier</text></g><g id="elem_UC2"><ellipse cx="487.0168" cy="121.5242" fill="#EEFDF3" rx="108.0168" ry="24.0034" style="stroke:#0F904C;stroke-width:0.5;"/><text fill="#000000" font-family="Helvetica" font-size="14" lengthAdjust="spacing" textLength="142.4336" x="412.8" y="117.1643">D&#233;poser une demande</text><text fill="#000000" font-family="Helvetica" font-size="14" lengthAdjust="spacing" textLength="62.2686" x="452.8825" y="131.1643">de bourse</text></g><g id="elem_UC3"><ellipse cx="188.8369" cy="2.4951" fill="#EEFDF3" rx="94.8369" ry="22.9743" style="stroke:#0F904C;stroke-width:0.5;"/><text fill="#000000" font-family="Helvetica" font-size="14" lengthAdjust="spacing" textLength="116.7373" x="127.4683" y="-1.8648">Joindre des pi&#232;ces</text><text fill="#000000" font-family="Helvetica" font-size="14" lengthAdjust="spacing" textLength="75.4688" x="148.1025" y="12.1352">justificatives</text></g><g id="elem_UC4"><ellipse cx="188.9178" cy="63.4044" fill="#EEFDF3" rx="87.4178" ry="19.8836" style="stroke:#0F904C;stroke-width:0.5;"/><text fill="#000000" font-family="Helvetica" font-size="14" lengthAdjust="spacing" textLength="141.6406" x="118.0975" y="65.1846">Soumettre la demande</text></g><g id="elem_UC5"><ellipse cx="486.9832" cy="191.5175" fill="#EEFDF3" rx="77.9832" ry="17.9966" style="stroke:#0F904C;stroke-width:0.5;"/><text fill="#000000" font-family="Helvetica" font-size="14" lengthAdjust="spacing" textLength="120.627" x="426.6697" y="193.2977">Suivre sa demande</text></g><g id="elem_UC6"><ellipse cx="189.1845" cy="122.7577" fill="#EEFDF3" rx="91.6845" ry="20.7369" style="stroke:#0F904C;stroke-width:0.5;"/><text fill="#000000" font-family="Helvetica" font-size="14" lengthAdjust="spacing" textLength="150.9717" x="113.6987" y="124.538">Consulter son historique</text></g><g id="elem_UC7"><ellipse cx="188.9132" cy="184.4317" fill="#EEFDF3" rx="82.9132" ry="22.9109" style="stroke:#0F904C;stroke-width:0.5;"/><text fill="#000000" font-family="Helvetica" font-size="14" lengthAdjust="spacing" textLength="100.3789" x="135.7237" y="180.0719">T&#233;l&#233;charger ses</text><text fill="#000000" font-family="Helvetica" font-size="14" lengthAdjust="spacing" textLength="71.5996" x="150.1133" y="194.0719">attestations</text></g><g id="elem_UC8"><ellipse cx="487.0883" cy="248.3385" fill="#EEFDF3" rx="84.5883" ry="19.3177" style="stroke:#0F904C;stroke-width:0.5;"/><text fill="#000000" font-family="Helvetica" font-size="14" lengthAdjust="spacing" textLength="135.3994" x="419.3886" y="250.1187">Faire une r&#233;clamation</text></g><g id="elem_UC9"><ellipse cx="189.1366" cy="248.3566" fill="#EEFDF3" rx="72.1366" ry="22.8357" style="stroke:#0F904C;stroke-width:0.5;"/><text fill="#000000" font-family="Helvetica" font-size="14" lengthAdjust="spacing" textLength="85.5928" x="143.366" y="243.9902">Consulter ses</text><text fill="#000000" font-family="Helvetica" font-size="14" lengthAdjust="spacing" textLength="73.9307" x="149.197" y="257.9902">notifications</text></g><polygon fill="#181818" points="117.8161,-48.7299,108.0086,-49.6315,113.0804,-47.126,110.5749,-42.0543,117.8161,-48.7299" style="stroke:#181818;stroke-width:1;"/><path d="M34.8117,211.2584 C39.7639,143.7039 53.6849,4.817 86,-29.4792 C94.5846,-38.59 100.1951,-42.762 112.1332,-46.8052 " fill="none" style="stroke:#181818;stroke-width:1;"/><polygon fill="#181818" points="409.0497,145.6221,399.2076,145.9885,404.5593,147.8214,402.7265,153.1731,409.0497,145.6221" style="stroke:#181818;stroke-width:1;"/><path d="M57.0671,266.9847 C65.7491,272.4542 75.8808,277.7255 86,280.5208 C170.823,303.9526 203.8643,316.8839 284,280.5208 C331.3252,259.0461 329.7525,234.0471 361,192.5208 C369.8952,180.6996 367.5976,173.9468 379,164.5208 C387.9497,157.1224 392.9481,153.5084 403.6613,148.2612 " fill="none" style="stroke:#181818;stroke-width:1;"/><polygon fill="#181818" points="408.7814,201.1806,398.9423,200.7419,404.1264,203.0057,401.8626,208.1899,408.7814,201.1806" style="stroke:#181818;stroke-width:1;"/><path d="M48.2114,285.7376 C54.7927,296.6822 63.6154,307.3624 75,313.5208 C130.9009,343.7599 311.9752,353.9668 361,313.5208 C393.475,286.7286 350.3442,251.3638 379,220.5208 C387.1222,211.7787 392.0003,207.7603 403.1954,203.3708 " fill="none" style="stroke:#181818;stroke-width:1;"/><polygon fill="#181818" points="100.484,143.0293,90.6644,143.7886,96.0851,145.4062,94.4675,150.8269,100.484,143.0293" style="stroke:#181818;stroke-width:1;"/><path d="M45.1435,211.4818 C53.7555,191.3929 67.0702,167.6482 86,152.5208 C90.4701,148.9486 90.0746,148.654 95.2053,145.8816 " fill="none" style="stroke:#181818;stroke-width:1;"/><polygon fill="#181818" points="108.2463,207.5335,98.4191,206.8806,103.5527,209.2568,101.1764,214.3904,108.2463,207.5335" style="stroke:#181818;stroke-width:1;"/><path d="M57.1537,232.1229 C66.0072,226.6836 76.2232,220.9047 86,216.5208 C93.1126,213.3315 95.0045,212.3954 102.6139,209.6015 " fill="none" style="stroke:#181818;stroke-width:1;"/><polygon fill="#181818" points="469.9157,268.3666,460.997,272.5448,466.6397,272.1439,467.0406,277.7865,469.9157,268.3666" style="stroke:#181818;stroke-width:1;"/><path d="M37.3477,285.5545 C42.5072,308.7349 53.1353,336.8898 75,351.5208 C180.641,422.2118 241.3618,394.4618 361,351.5208 C407.0517,334.9918 444.3175,297.8812 465.9845,272.8993 " fill="none" style="stroke:#181818;stroke-width:1;"/><polygon fill="#181818" points="116.7945,248.5208,107.7945,244.5208,111.7945,248.5208,107.7945,252.5208,116.7945,248.5208" style="stroke:#181818;stroke-width:1;"/><path d="M57.1394,248.5208 C73.3251,248.5208 89.3928,248.5208 110.7945,248.5208 " fill="none" style="stroke:#181818;stroke-width:1;"/><polygon fill="#181818" points="696.0264,176.9397,688.3649,170.7508,691.196,175.6483,686.2986,178.4794,696.0264,176.9397" style="stroke:#181818;stroke-width:1;"/><path d="M578.3174,145.551 C608.1467,153.4933 641.4977,162.3794 672,170.5208 C679.7694,172.5946 682.1743,173.2362 690.23,175.39 " fill="none" style="stroke:#181818;stroke-width:1;stroke-dasharray:7.0,7.0;"/><text fill="#000000" font-family="Helvetica" font-size="13" lengthAdjust="spacing" textLength="55.6563" x="615" y="151.5311">&#171;include&#187;</text><polygon fill="#181818" points="434.2783,97.5028,427.7358,90.141,429.7252,95.4365,424.4297,97.4259,434.2783,97.5028" style="stroke:#181818;stroke-width:1;"/><path d="M259.1996,25.5976 C267.5793,28.5336 276,31.5512 284,34.5208 C335.9059,53.7881 388.3533,76.6606 428.8146,95.0232 " fill="none" style="stroke:#181818;stroke-width:1;stroke-dasharray:7.0,7.0;"/><text fill="#000000" font-family="Helvetica" font-size="13" lengthAdjust="spacing" textLength="55.6563" x="304" y="38.5311">&#171;include&#187;</text><polygon fill="#181818" points="378.9701,100.5487,370.9072,94.8928,374.0634,99.5873,369.3689,102.7435,378.9701,100.5487" style="stroke:#181818;stroke-width:1;"/><path d="M276.8097,80.5308 C308.795,86.7982 339.5201,92.8187 373.0821,99.395 " fill="none" style="stroke:#181818;stroke-width:1;stroke-dasharray:7.0,7.0;"/><text fill="#000000" font-family="Helvetica" font-size="13" lengthAdjust="spacing" textLength="55.6563" x="304" y="81.5311">&#171;include&#187;</text><polygon fill="#181818" points="689.9373,191.5208,680.9373,187.5208,684.9373,191.5208,680.9373,195.5208,689.9373,191.5208" style="stroke:#181818;stroke-width:1;"/><path d="M565.3389,191.5208 C605.113,191.5208 646.8818,191.5208 683.9373,191.5208 " fill="none" style="stroke:#181818;stroke-width:1;stroke-dasharray:7.0,7.0;"/><text fill="#000000" font-family="Helvetica" font-size="13" lengthAdjust="spacing" textLength="55.6563" x="615" y="186.5311">&#171;include&#187;</text><polygon fill="#181818" points="698.2646,206.0263,688.5474,204.4216,693.4257,207.2854,690.5619,212.1638,698.2646,206.0263" style="stroke:#181818;stroke-width:1;"/><path d="M571.6081,233.4105 C603.17,227.3794 639.3358,220.0761 672,212.5208 C680.5218,210.5497 683.7136,209.8125 692.458,207.5372 " fill="none" style="stroke:#181818;stroke-width:1;stroke-dasharray:7.0,7.0;"/><text fill="#000000" font-family="Helvetica" font-size="13" lengthAdjust="spacing" textLength="55.6563" x="615" y="207.5311">&#171;include&#187;</text><polygon fill="#181818" points="408.871,189.6968,399.9681,185.4852,403.8724,189.5786,399.779,193.4829,408.871,189.6968" style="stroke:#181818;stroke-width:1;"/><path d="M272.0594,186.4614 C314.8327,187.4729 360.8443,188.5611 402.8727,189.555 " fill="none" style="stroke:#181818;stroke-width:1;stroke-dasharray:7.0,7.0;"/><text fill="#000000" font-family="Helvetica" font-size="13" lengthAdjust="spacing" textLength="53.4917" x="305" y="182.5311">&#171;extend&#187;</text><text fill="#000000" font-family="Helvetica" font-size="14" lengthAdjust="spacing" textLength="263.3545" x="278.3228" y="400.7803">Diagramme de cas d'utilisation &#8212; &#201;tudiant</text><!--SRC=[dL9BZjD05Dpx50-pcDMCGlv1eomcYK4i41AmcysRxXUdIRlRz2U041BRsNC8SWxVX9DCjySU7ADiiEI5gwgho_NUiz9WNY18_AQz0rkGGuK9mz89hM0jC3TO50ISWA45Vk6TaC9YJV_v-GkgU-UvGEMInEw5AZ7euGxPFZVQAxxIKXjudjLFHs5toFKNeNBOehJKOJXjqKkNQUNUOhWvVKtoG4umJ3igfJbPAc4uw806rJw2qoxeBONa1DyJW9j-hiqcMsUZo6Z3oJJe85iCnglaHyS5cGlC_tWaahOEd0OZyfq3BWons5wIF7gcJmsc41hUFDKPTQXo6Ifu9z7HLfjGn_hLpIQjWxG_bgvCTIG3NW7JHUcezlcuUj7LlBz0xtQadDWACerYq5MigsEfRUqJnrsWudGRNhZJtjZMTDWzyaOBnKrKMoX5zPkHlLMVl8sNiB0Y1xBDiT595kt3dhbmK69xKwCRd-YyE0IHxOic9p-lbGth4dBRi94xOKEduhDljTEkzaDrbDMHxT3aKH_JedDaNRtERTPPzqY6OLvr9Q5a9h6efOroVYP8D5QwRU6lyoAkGpjWkBnSrbFg0SC-CEa3qpumwmFpFh18ak0CLrVnOm0luVfQA2Ozf-KoCAE66Vx3ZCyoaxDkyxFCh64cDKDV7IaUY0S0]--></g></svg>