<svg xmlns="http://www.w3.org/2000/svg" xmlns:xlink="http://www.w3.org/1999/xlink" contentStyleType="text/css" height="484px" preserveAspectRatio="none" style="width:743px;height:484px;background:#FFFFFF;" version="1.1" viewBox="0 0 743 484" width="743px" zoomAndPan="magnify"><title>Diagramme de contexte global &#8212; Plateforme DGBE</title><defs/><g><text fill="#000000" font-family="Helvetica" font-size="14" font-weight="bold" lengthAdjust="spacing" textLength="341.5303" x="196.7349" y="20.7803">Diagramme de contexte global &#8212; Plateforme DGBE</text><!--entity Admin--><g id="elem_Admin"><ellipse cx="51.1274" cy="222.5" fill="#EEFDF3" rx="8" ry="8" style="stroke:#0F904C;stroke-width:0.5;"/><path d="M51.1274,230.5 L51.1274,257.5 M38.1274,238.5 L64.1274,238.5 M51.1274,257.5 L38.1274,272.5 M51.1274,257.5 L64.1274,272.5 " fill="none" style="stroke:#0F904C;stroke-width:0.5;"/><text fill="#000000" font-family="Helvetica" font-size="14" lengthAdjust="spacing" textLength="90.2549" x="6" y="284.7803">Administrateur</text></g><!--entity Agent--><g id="elem_Agent"><ellipse cx="697.624" cy="55.5" fill="#EEFDF3" rx="8" ry="8" style="stroke:#0F904C;stroke-width:0.5;"/><path d="M697.624,63.5 L697.624,90.5 M684.624,71.5 L710.624,71.5 M697.624,90.5 L684.624,105.5 M697.624,90.5 L710.624,105.5 " fill="none" style="stroke:#0F904C;stroke-width:0.5;"/><text fill="#000000" font-family="Helvetica" font-size="14" lengthAdjust="spacing" textLength="56.0479" x="666.5" y="117.7803">Agent de</text><text fill="#000000" font-family="Helvetica" font-size="14" lengthAdjust="spacing" textLength="62.248" x="666.5" y="131.7803">traitement</text></g><!--entity Commission--><g id="elem_Commission"><ellipse cx="697.5068" cy="171.5" fill="#EEFDF3" rx="8" ry="8" style="stroke:#0F904C;stroke-width:0.5;"/><path d="M697.5068,179.5 L697.5068,206.5 M684.5068,187.5 L710.5068,187.5 M697.5068,206.5 L684.5068,221.5 M697.5068,206.5 L710.5068,221.5 " fill="none" style="stroke:#0F904C;stroke-width:0.5;"/><text fill="#000000" font-family="Helvetica" font-size="14" lengthAdjust="spacing" textLength="77.0137" x="659" y="233.7803">Commission</text></g><!--entity Finance--><g id="elem_Finance"><ellipse cx="697.4585" cy="283.5" fill="#EEFDF3" rx="8" ry="8" style="stroke:#0F904C;stroke-width:0.5;"/><path d="M697.4585,291.5 L697.4585,318.5 M684.4585,299.5 L710.4585,299.5 M697.4585,318.5 L684.4585,333.5 M697.4585,318.5 L710.4585,333.5 " fill="none" style="stroke:#0F904C;stroke-width:0.5;"/><text fill="#000000" font-family="Helvetica" font-size="14" lengthAdjust="spacing" textLength="46.6826" x="671" y="345.7803">Service</text><text fill="#000000" font-family="Helvetica" font-size="14" lengthAdjust="spacing" textLength="52.917" x="671" y="359.7803">financier</text></g><!--entity Etudiant--><g id="elem_Etudiant"><ellipse cx="697.686" cy="399.5" fill="#EEFDF3" rx="8" ry="8" style="stroke:#0F904C;stroke-width:0.5;"/><path d="M697.686,407.5 L697.686,434.5 M684.686,415.5 L710.686,415.5 M697.686,434.5 L684.686,449.5 M697.686,434.5 L710.686,449.5 " fill="none" style="stroke:#0F904C;stroke-width:0.5;"/><text fill="#000000" font-family="Helvetica" font-size="14" lengthAdjust="spacing" textLength="51.3721" x="672" y="461.7803">&#201;tudiant</text></g><!--entity Systeme--><g id="elem_Systeme"><rect fill="#0F904C" height="62" rx="2.5" ry="2.5" style="stroke:#0D4A2E;stroke-width:0.5;" width="168.5586" x="297" y="220"/><text fill="#FFFFFF" font-family="Helvetica" font-size="14" font-weight="bold" lengthAdjust="spacing" textLength="140.7793" x="314.7793" y="240.7803">PLATEFORME DGBE</text><text fill="#FFFFFF" font-family="Helvetica" font-size="14" font-weight="bold" lengthAdjust="spacing" textLength="131.4756" x="314.7793" y="254.7803">Gestion &amp; Suivi des</text><text fill="#FFFFFF" font-family="Helvetica" font-size="14" font-weight="bold" lengthAdjust="spacing" textLength="131.4756" x="314.7793" y="268.7803">Bourses &#201;tudiantes</text></g><polygon fill="#181818" points="388.7076,282.2999,386.9206,291.9852,389.8756,287.1615,394.6993,290.1165,388.7076,282.2999" style="stroke:#181818;stroke-width:1;"/><path d="M671.7609,438.1412 C629.7915,453.6007 543.4174,477.7109 484,442 C426.0664,407.1809 400.8234,332.7327 390.1092,288.1339 " fill="none" style="stroke:#181818;stroke-width:1;"/><text fill="#000000" font-family="Helvetica" font-size="13" lengthAdjust="spacing" textLength="129.3843" x="498" y="411.0103">d&#233;pose une demande,</text><text fill="#000000" font-family="Helvetica" font-size="13" lengthAdjust="spacing" textLength="93.9326" x="515.7258" y="424.0103">suit son dossier,</text><text fill="#000000" font-family="Helvetica" font-size="13" lengthAdjust="spacing" textLength="113.4517" x="505.9663" y="437.0103">fait une r&#233;clamation</text><polygon fill="#181818" points="671.7677,413.1373,665.7788,405.3185,667.3772,410.7449,661.9509,412.3433,671.7677,413.1373" style="stroke:#181818;stroke-width:1;"/><path d="M400.939,282.0257 C418.7233,309.1037 448.1774,347.223 484,368 C545.5254,403.6845 573.9045,375.3999 641,399 C651.4607,402.6794 657.1277,405.1597 666.4991,410.2664 " fill="none" style="stroke:#181818;stroke-width:1;"/><text fill="#000000" font-family="Helvetica" font-size="13" lengthAdjust="spacing" textLength="72.2617" x="526.5" y="350.0103">notifications,</text><text fill="#000000" font-family="Helvetica" font-size="13" lengthAdjust="spacing" textLength="66.4854" x="529.3882" y="363.0103">attestations</text><polygon fill="#181818" points="413.6717,219.7256,423.0183,216.6206,417.3675,216.358,417.6301,210.7073,413.6717,219.7256" style="stroke:#181818;stroke-width:1;"/><path d="M666.3633,120.3994 C658.5979,126.6775 649.904,132.703 641,137 C576.7842,167.99 548.5002,139.6064 484,170 C457.8956,182.3008 436.9556,198.5097 418.1067,215.6845 " fill="none" style="stroke:#181818;stroke-width:1;"/><text fill="#000000" font-family="Helvetica" font-size="13" lengthAdjust="spacing" textLength="99.709" x="512.7363" y="119.0103">v&#233;rifie les pi&#232;ces,</text><text fill="#000000" font-family="Helvetica" font-size="13" lengthAdjust="spacing" textLength="153.1816" x="486" y="132.0103">valide / rejette les dossiers</text><polygon fill="#181818" points="666.3879,85.6546,658.0328,80.44,661.4366,84.9582,656.9185,88.362,666.3879,85.6546" style="stroke:#181818;stroke-width:1;"/><path d="M394.8011,219.7181 C410.0922,185.482 439.7041,132.1265 484,107 C541.7633,74.2343 617.055,78.7154 660.4464,84.8189 " fill="none" style="stroke:#181818;stroke-width:1;"/><text fill="#000000" font-family="Helvetica" font-size="13" lengthAdjust="spacing" textLength="96.0908" x="514.5" y="77.0103">dossiers &#224; traiter</text><polygon fill="#181818" points="466.1721,252.8757,475.2452,256.707,471.1712,252.7824,475.0959,248.7084,466.1721,252.8757" style="stroke:#181818;stroke-width:1;"/><path d="M658.8796,222.9826 C653.0571,225.753 646.9855,228.2249 641,230 C584.2342,246.835 523.5778,251.8036 472.1711,252.7637 " fill="none" style="stroke:#181818;stroke-width:1;"/><text fill="#000000" font-family="Helvetica" font-size="13" lengthAdjust="spacing" textLength="90.3271" x="517.5422" y="212.0103">attribue / refuse</text><text fill="#000000" font-family="Helvetica" font-size="13" lengthAdjust="spacing" textLength="147.4116" x="489" y="225.0103">les bourses, observations</text><polygon fill="#181818" points="658.6574,194.8036,650.147,189.8464,653.6872,194.2586,649.275,197.7987,658.6574,194.8036" style="stroke:#181818;stroke-width:1;"/><path d="M432.8799,219.9113 C448.6652,211.7814 466.5381,204.1403 484,200 C543.7687,185.8284 609.7163,189.437 652.6931,194.1496 " fill="none" style="stroke:#181818;stroke-width:1;"/><text fill="#000000" font-family="Helvetica" font-size="13" lengthAdjust="spacing" textLength="102.6035" x="511.5" y="186.0103">dossiers &#224; statuer</text><polygon fill="#181818" points="415.269,282.1992,419.6153,291.0372,419.1075,285.4032,424.7416,284.8955,415.269,282.1992" style="stroke:#181818;stroke-width:1;"/><path d="M670.8788,324.663 C630.1653,332.529 548.6889,343.614 484,323 C458.4747,314.866 438.4695,301.564 419.8753,286.044 " fill="none" style="stroke:#181818;stroke-width:1;"/><text fill="#000000" font-family="Helvetica" font-size="13" lengthAdjust="spacing" textLength="145.2407" x="490" y="305.0103">enregistre les paiements,</text><text fill="#000000" font-family="Helvetica" font-size="13" lengthAdjust="spacing" textLength="80.2153" x="522.5127" y="318.0103">&#233;dite les &#233;tats</text><polygon fill="#181818" points="670.9061,304.934,664.5729,297.3914,666.4128,302.7407,661.0635,304.5806,670.9061,304.934" style="stroke:#181818;stroke-width:1;"/><path d="M466.0013,270.6338 C472.0782,271.8436 478.1251,272.9816 484,274 C553.2541,286.0046 573.4362,273.6252 641,293 C651.1258,295.9037 656.3281,297.8179 665.5142,302.302 " fill="none" style="stroke:#181818;stroke-width:1;"/><text fill="#000000" font-family="Helvetica" font-size="13" lengthAdjust="spacing" textLength="119.958" x="503" y="269.0103">b&#233;n&#233;ficiaires retenus</text><polygon fill="#181818" points="296.8304,251,287.8304,247,291.8304,251,287.8304,255,296.8304,251" style="stroke:#181818;stroke-width:1;"/><path d="M96.303,251 C147.5284,251 226.9785,251 290.8304,251 " fill="none" style="stroke:#181818;stroke-width:1;"/><text fill="#000000" font-family="Helvetica" font-size="13" lengthAdjust="spacing" textLength="95.3799" x="149.2363" y="220.0103">g&#232;re utilisateurs,</text><text fill="#000000" font-family="Helvetica" font-size="13" lengthAdjust="spacing" textLength="161.8525" x="116" y="233.0103">&#233;tablissements, r&#233;f&#233;rentiels,</text><text fill="#000000" font-family="Helvetica" font-size="13" lengthAdjust="spacing" textLength="55.6372" x="169.1077" y="246.0103">supervise</text><polygon fill="#181818" points="96.2568,267.9225,103.815,274.2369,101.0651,269.2935,106.0086,266.5435,96.2568,267.9225" style="stroke:#181818;stroke-width:1;"/><path d="M296.7957,269.7088 C290.7945,270.6217 284.8179,271.4045 279,272 C206.0479,279.4677 186.3578,283.9215 114,272 C108.169,271.0393 107.9188,271.2476 102.0268,269.5677 " fill="none" style="stroke:#181818;stroke-width:1;"/><text fill="#000000" font-family="Helvetica" font-size="13" lengthAdjust="spacing" textLength="128.6162" x="132.5" y="267.0103">statistiques &amp; rapports</text><!--SRC=[bLHBRjH04DttAOf12fj4H90Diq1ACdPOy8aObjcKxR9JfDqzz6SWGaXisUS0B3Fdy4qu2TMsvoisUEMkUlrUVPxzPE6mQH4qtjiOmBSKqA1w1ZF6nc7R4bG4fJM1lWM2Hji2DVpv-G3N6WFLrWbYTdMH9LX3Fh0rykgXiD5vyYfmqFJVR4hvEpOBb3jGO7dNE1jDTMcrTV0qxvyTXB_5odvbqq2DsjDEfg8QemwvABv7uPwy8Rsam2LETb1O1k7zhW0k3hMoB9_bBrF6kehS63tDNvsUNQeVEnoEIfbS8xt-asUy0P1AsU_Za7jsTluY6v7pS2-CXTMLY2bDTO1WmN5p6w3Yf2dpLcfeO79UjMpO1oUpZ6u2wA4FRV8D6Rb7DqOW7AYLuu1AYJNgqhOjUo_4VMvxN0Fcv9PS2alD1at9D4Zb_OdMgEvNY1NZg92D1wMsWve0NByz_vJb7pw-o_grtnY0gz54Hp2FlEHafXI-6Fm46rfvXvvwVkzJAqgjDU3avFKw2bEekjN2Ue9ealjQD1KTtnWVMUoUp6gbEN8IgcKcFSfrgr9ZY_rmrqI9TACm1MC3r-AZXF5o6ODK58QZKiEaz-jOTYidLmYqbBxWxh6aT769ckMZU2uE-an2qgV7eloU-a0wtIIX-mt38frIspKTo4fXZeiuADJHozxqzliy1bjusUTO-AxS3kE-Pcep9irnumU2P1mroOLZfyYzqLAltQhYiSDk9IpxWckwAHJTIh0oNaOnkPV20vcOvfhiVA3NT8yY5GDhzhtn1wM0XGJyg9rsMii2vC2aVM-0HVAn_2xsPjmBJFiUfGV-4aN-21mk5jP9lNy1]--></g></svg>