<svg xmlns="http://www.w3.org/2000/svg" xmlns:xlink="http://www.w3.org/1999/xlink" contentStyleType="text/css" height="1634px" preserveAspectRatio="none" style="width:850px;height:1634px;background:#FFFFFF;" version="1.1" viewBox="0 0 850 1634" width="850px" zoomAndPan="magnify"><title>Diagramme de classes &#8212; Plateforme DGBE</title><defs/><g><text fill="#000000" font-family="Helvetica" font-size="14" font-weight="bold" lengthAdjust="spacing" textLength="289.4541" x="276.5229" y="20.7803">Diagramme de classes &#8212; Plateforme DGBE</text><!--class StatutDemande--><g id="elem_StatutDemande"><rect codeLine="17" fill="#EEFDF3" height="124" id="StatutDemande" rx="2.5" ry="2.5" style="stroke:#0F904C;stroke-width:0.5;" width="103.8271" x="232" y="1172"/><rect fill="#0F904C" height="24" rx="2.5" ry="2.5" style="stroke:#0F904C;stroke-width:0.5;" width="103.8271" x="232" y="1172"/><rect fill="#0F904C" height="2.5" style="stroke:#0F904C;stroke-width:0.5;" width="103.8271" x="232" y="1193.5"/><rect codeLine="17" fill="none" height="124" id="StatutDemande" rx="2.5" ry="2.5" style="stroke:#0F904C;stroke-width:0.5;" width="103.8271" x="232" y="1172"/><text fill="#0D4A2E" font-family="Helvetica" font-size="14" lengthAdjust="spacing" textLength="97.2822" x="235.2725" y="1187.7803">StatutDemande</text><line style="stroke:#0F904C;stroke-width:0.5;" x1="233" x2="334.8271" y1="1196" y2="1196"/><text fill="#000000" font-family="Helvetica" font-size="14" lengthAdjust="spacing" textLength="54.4756" x="238" y="1210.7803">Brouillon</text><text fill="#000000" font-family="Helvetica" font-size="14" lengthAdjust="spacing" textLength="54.4688" x="238" y="1224.7803">Soumise</text><text fill="#000000" font-family="Helvetica" font-size="14" lengthAdjust="spacing" textLength="91.8271" x="238" y="1238.7803">En_verification</text><text fill="#000000" font-family="Helvetica" font-size="14" lengthAdjust="spacing" textLength="58.3721" x="238" y="1252.7803">Acceptee</text><text fill="#000000" font-family="Helvetica" font-size="14" lengthAdjust="spacing" textLength="52.1445" x="238" y="1266.7803">Refusee</text><text fill="#000000" font-family="Helvetica" font-size="14" lengthAdjust="spacing" textLength="39.6963" x="238" y="1280.7803">Payee</text><line style="stroke:#0F904C;stroke-width:0.5;" x1="233" x2="334.8271" y1="1288" y2="1288"/></g><!--class StatutPaiement--><g id="elem_StatutPaiement"><rect codeLine="26" fill="#EEFDF3" height="82" id="StatutPaiement" rx="2.5" ry="2.5" style="stroke:#0F904C;stroke-width:0.5;" width="101.7236" x="397" y="1545"/><rect fill="#0F904C" height="24" rx="2.5" ry="2.5" style="stroke:#0F904C;stroke-width:0.5;" width="101.7236" x="397" y="1545"/><rect fill="#0F904C" height="2.5" style="stroke:#0F904C;stroke-width:0.5;" width="101.7236" x="397" y="1566.5"/><rect codeLine="26" fill="none" height="82" id="StatutPaiement" rx="2.5" ry="2.5" style="stroke:#0F904C;stroke-width:0.5;" width="101.7236" x="397" y="1545"/><text fill="#0D4A2E" font-family="Helvetica" font-size="14" lengthAdjust="spacing" textLength="95.7236" x="400" y="1560.7803">StatutPaiement</text><line style="stroke:#0F904C;stroke-width:0.5;" x1="398" x2="497.7236" y1="1569" y2="1569"/><text fill="#000000" font-family="Helvetica" font-size="14" lengthAdjust="spacing" textLength="30.3584" x="403" y="1583.7803">paye</text><text fill="#000000" font-family="Helvetica" font-size="14" lengthAdjust="spacing" textLength="66.1719" x="403" y="1597.7803">en_attente</text><text fill="#000000" font-family="Helvetica" font-size="14" lengthAdjust="spacing" textLength="42.041" x="403" y="1611.7803">annule</text><line style="stroke:#0F904C;stroke-width:0.5;" x1="398" x2="497.7236" y1="1619" y2="1619"/></g><!--class StatutPiece--><g id="elem_StatutPiece"><rect codeLine="32" fill="#EEFDF3" height="82" id="StatutPiece" rx="2.5" ry="2.5" style="stroke:#0F904C;stroke-width:0.5;" width="79.7236" x="602" y="1398"/><rect fill="#0F904C" height="24" rx="2.5" ry="2.5" style="stroke:#0F904C;stroke-width:0.5;" width="79.7236" x="602" y="1398"/><rect fill="#0F904C" height="2.5" style="stroke:#0F904C;stroke-width:0.5;" width="79.7236" x="602" y="1419.5"/><rect codeLine="32" fill="none" height="82" id="StatutPiece" rx="2.5" ry="2.5" style="stroke:#0F904C;stroke-width:0.5;" width="79.7236" x="602" y="1398"/><text fill="#0D4A2E" font-family="Helvetica" font-size="14" lengthAdjust="spacing" textLength="71.5996" x="606.062" y="1413.7803">StatutPiece</text><line style="stroke:#0F904C;stroke-width:0.5;" x1="603" x2="680.7236" y1="1422" y2="1422"/><text fill="#000000" font-family="Helvetica" font-size="14" lengthAdjust="spacing" textLength="67.7236" x="608" y="1436.7803">En_attente</text><text fill="#000000" font-family="Helvetica" font-size="14" lengthAdjust="spacing" textLength="46.7031" x="608" y="1450.7803">Validee</text><text fill="#000000" font-family="Helvetica" font-size="14" lengthAdjust="spacing" textLength="48.2549" x="608" y="1464.7803">Rejetee</text><line style="stroke:#0F904C;stroke-width:0.5;" x1="603" x2="680.7236" y1="1472" y2="1472"/></g><!--class StatutReclamation--><g id="elem_StatutReclamation"><rect codeLine="38" fill="#EEFDF3" height="96" id="StatutReclamation" rx="2.5" ry="2.5" style="stroke:#0F904C;stroke-width:0.5;" width="120.3926" x="63" y="1391"/><rect fill="#0F904C" height="24" rx="2.5" ry="2.5" style="stroke:#0F904C;stroke-width:0.5;" width="120.3926" x="63" y="1391"/><rect fill="#0F904C" height="2.5" style="stroke:#0F904C;stroke-width:0.5;" width="120.3926" x="63" y="1412.5"/><rect codeLine="38" fill="none" height="96" id="StatutReclamation" rx="2.5" ry="2.5" style="stroke:#0F904C;stroke-width:0.5;" width="120.3926" x="63" y="1391"/><text fill="#0D4A2E" font-family="Helvetica" font-size="14" lengthAdjust="spacing" textLength="114.3926" x="66" y="1406.7803">StatutReclamation</text><line style="stroke:#0F904C;stroke-width:0.5;" x1="64" x2="182.3926" y1="1415" y2="1415"/><text fill="#000000" font-family="Helvetica" font-size="14" lengthAdjust="spacing" textLength="49.7998" x="69" y="1429.7803">Ouverte</text><text fill="#000000" font-family="Helvetica" font-size="14" lengthAdjust="spacing" textLength="59.1445" x="69" y="1443.7803">En_cours</text><text fill="#000000" font-family="Helvetica" font-size="14" lengthAdjust="spacing" textLength="43.5723" x="69" y="1457.7803">Traitee</text><text fill="#000000" font-family="Helvetica" font-size="14" lengthAdjust="spacing" textLength="48.2344" x="69" y="1471.7803">Fermee</text><line style="stroke:#0F904C;stroke-width:0.5;" x1="64" x2="182.3926" y1="1479" y2="1479"/></g><!--class Utilisateur--><g id="elem_Utilisateur"><rect codeLine="46" fill="#EEFDF3" height="208" id="Utilisateur" rx="2.5" ry="2.5" style="stroke:#0F904C;stroke-width:0.5;" width="191.375" x="481.5" y="373"/><rect fill="#0F904C" height="24" rx="2.5" ry="2.5" style="stroke:#0F904C;stroke-width:0.5;" width="191.375" x="481.5" y="373"/><rect fill="#0F904C" height="2.5" style="stroke:#0F904C;stroke-width:0.5;" width="191.375" x="481.5" y="394.5"/><rect codeLine="46" fill="none" height="208" id="Utilisateur" rx="2.5" ry="2.5" style="stroke:#0F904C;stroke-width:0.5;" width="191.375" x="481.5" y="373"/><text fill="#0D4A2E" font-family="Helvetica" font-size="14" lengthAdjust="spacing" textLength="62.2412" x="546.0669" y="388.7803">Utilisateur</text><line style="stroke:#0F904C;stroke-width:0.5;" x1="482.5" x2="671.875" y1="397" y2="397"/><text fill="#000000" font-family="Helvetica" font-size="14" lengthAdjust="spacing" textLength="45.5273" x="487.5" y="411.7803">+id : int</text><text fill="#000000" font-family="Helvetica" font-size="14" lengthAdjust="spacing" textLength="81.3135" x="487.5" y="425.7803">+nom : string</text><text fill="#000000" font-family="Helvetica" font-size="14" lengthAdjust="spacing" textLength="101.5479" x="487.5" y="439.7803">+prenom : string</text><text fill="#000000" font-family="Helvetica" font-size="14" lengthAdjust="spacing" textLength="87.5342" x="487.5" y="453.7803">+email : string</text><text fill="#000000" font-family="Helvetica" font-size="14" lengthAdjust="spacing" textLength="115.582" x="487.5" y="467.7803">+telephone : string</text><text fill="#000000" font-family="Helvetica" font-size="14" lengthAdjust="spacing" textLength="89.1133" x="487.5" y="481.7803">+photo : string</text><text fill="#000000" font-family="Helvetica" font-size="14" lengthAdjust="spacing" textLength="103.8857" x="487.5" y="495.7803">+adresse : string</text><text fill="#000000" font-family="Helvetica" font-size="14" lengthAdjust="spacing" textLength="113.9961" x="487.5" y="509.7803">+password : string</text><text fill="#000000" font-family="Helvetica" font-size="14" lengthAdjust="spacing" textLength="71.9893" x="487.5" y="523.7803">+actif : bool</text><text fill="#000000" font-family="Helvetica" font-size="14" lengthAdjust="spacing" textLength="179.375" x="487.5" y="537.7803">+email_verified_at : datetime</text><line style="stroke:#0F904C;stroke-width:1;" x1="482.5" x2="671.875" y1="545" y2="545"/><text fill="#000000" font-family="Helvetica" font-size="14" lengthAdjust="spacing" textLength="142.7686" x="487.5" y="559.7803">+nomComplet() : string</text><text fill="#000000" font-family="Helvetica" font-size="14" lengthAdjust="spacing" textLength="130.3477" x="487.5" y="573.7803">+hasRole(role) : bool</text></g><!--class Role--><g id="elem_Role"><rect codeLine="62" fill="#EEFDF3" height="82" id="Role" rx="2.5" ry="2.5" style="stroke:#0F904C;stroke-width:0.5;" width="144.6924" x="555.5" y="662"/><rect fill="#0F904C" height="24" rx="2.5" ry="2.5" style="stroke:#0F904C;stroke-width:0.5;" width="144.6924" x="555.5" y="662"/><rect fill="#0F904C" height="2.5" style="stroke:#0F904C;stroke-width:0.5;" width="144.6924" x="555.5" y="683.5"/><rect codeLine="62" fill="none" height="82" id="Role" rx="2.5" ry="2.5" style="stroke:#0F904C;stroke-width:0.5;" width="144.6924" x="555.5" y="662"/><text fill="#0D4A2E" font-family="Helvetica" font-size="14" lengthAdjust="spacing" textLength="28.793" x="613.4497" y="677.7803">Role</text><line style="stroke:#0F904C;stroke-width:0.5;" x1="556.5" x2="699.1924" y1="686" y2="686"/><text fill="#000000" font-family="Helvetica" font-size="14" lengthAdjust="spacing" textLength="45.5273" x="561.5" y="700.7803">+id : int</text><text fill="#000000" font-family="Helvetica" font-size="14" lengthAdjust="spacing" textLength="89.0996" x="561.5" y="714.7803">+name : string</text><text fill="#000000" font-family="Helvetica" font-size="14" lengthAdjust="spacing" textLength="132.6924" x="561.5" y="728.7803">+guard_name : string</text><line style="stroke:#0F904C;stroke-width:0.5;" x1="556.5" x2="699.1924" y1="736" y2="736"/></g><!--class Permission--><g id="elem_Permission"><rect codeLine="68" fill="#EEFDF3" height="68" id="Permission" rx="2.5" ry="2.5" style="stroke:#0F904C;stroke-width:0.5;" width="101.0996" x="584.5" y="974"/><rect fill="#0F904C" height="24" rx="2.5" ry="2.5" style="stroke:#0F904C;stroke-width:0.5;" width="101.0996" x="584.5" y="974"/><rect fill="#0F904C" height="2.5" style="stroke:#0F904C;stroke-width:0.5;" width="101.0996" x="584.5" y="995.5"/><rect codeLine="68" fill="none" height="68" id="Permission" rx="2.5" ry="2.5" style="stroke:#0F904C;stroke-width:0.5;" width="101.0996" x="584.5" y="974"/><text fill="#0D4A2E" font-family="Helvetica" font-size="14" lengthAdjust="spacing" textLength="69.2412" x="600.4292" y="989.7803">Permission</text><line style="stroke:#0F904C;stroke-width:0.5;" x1="585.5" x2="684.5996" y1="998" y2="998"/><text fill="#000000" font-family="Helvetica" font-size="14" lengthAdjust="spacing" textLength="45.5273" x="590.5" y="1012.7803">+id : int</text><text fill="#000000" font-family="Helvetica" font-size="14" lengthAdjust="spacing" textLength="89.0996" x="590.5" y="1026.7803">+name : string</text><line style="stroke:#0F904C;stroke-width:0.5;" x1="585.5" x2="684.5996" y1="1034" y2="1034"/></g><!--class Etudiant--><g id="elem_Etudiant"><rect codeLine="73" fill="#EEFDF3" height="138" id="Etudiant" rx="2.5" ry="2.5" style="stroke:#0F904C;stroke-width:0.5;" width="157.168" x="42.5" y="634"/><rect fill="#0F904C" height="24" rx="2.5" ry="2.5" style="stroke:#0F904C;stroke-width:0.5;" width="157.168" x="42.5" y="634"/><rect fill="#0F904C" height="2.5" style="stroke:#0F904C;stroke-width:0.5;" width="157.168" x="42.5" y="655.5"/><rect codeLine="73" fill="none" height="138" id="Etudiant" rx="2.5" ry="2.5" style="stroke:#0F904C;stroke-width:0.5;" width="157.168" x="42.5" y="634"/><text fill="#0D4A2E" font-family="Helvetica" font-size="14" lengthAdjust="spacing" textLength="51.3721" x="95.3979" y="649.7803">Etudiant</text><line style="stroke:#0F904C;stroke-width:0.5;" x1="43.5" x2="198.668" y1="658" y2="658"/><text fill="#000000" font-family="Helvetica" font-size="14" lengthAdjust="spacing" textLength="45.5273" x="48.5" y="672.7803">+id : int</text><text fill="#000000" font-family="Helvetica" font-size="14" lengthAdjust="spacing" textLength="113.2305" x="48.5" y="686.7803">+utilisateur_id : int</text><text fill="#000000" font-family="Helvetica" font-size="14" lengthAdjust="spacing" textLength="110.8721" x="48.5" y="700.7803">+matricule : string</text><text fill="#000000" font-family="Helvetica" font-size="14" lengthAdjust="spacing" textLength="145.168" x="48.5" y="714.7803">+date_naissance : date</text><text fill="#000000" font-family="Helvetica" font-size="14" lengthAdjust="spacing" textLength="76.6514" x="48.5" y="728.7803">+sexe : char</text><text fill="#000000" font-family="Helvetica" font-size="14" lengthAdjust="spacing" textLength="92.9961" x="48.5" y="742.7803">+region : string</text><text fill="#000000" font-family="Helvetica" font-size="14" lengthAdjust="spacing" textLength="95.334" x="48.5" y="756.7803">+niveau : string</text><line style="stroke:#0F904C;stroke-width:0.5;" x1="43.5" x2="198.668" y1="764" y2="764"/></g><!--class Universite--><g id="elem_Universite"><rect codeLine="83" fill="#EEFDF3" height="138" id="Universite" rx="2.5" ry="2.5" style="stroke:#0F904C;stroke-width:0.5;" width="127.582" x="6" y="47"/><rect fill="#0F904C" height="24" rx="2.5" ry="2.5" style="stroke:#0F904C;stroke-width:0.5;" width="127.582" x="6" y="47"/><rect fill="#0F904C" height="2.5" style="stroke:#0F904C;stroke-width:0.5;" width="127.582" x="6" y="68.5"/><rect codeLine="83" fill="none" height="138" id="Universite" rx="2.5" ry="2.5" style="stroke:#0F904C;stroke-width:0.5;" width="127.582" x="6" y="47"/><text fill="#0D4A2E" font-family="Helvetica" font-size="14" lengthAdjust="spacing" textLength="62.2412" x="38.6704" y="62.7803">Universite</text><line style="stroke:#0F904C;stroke-width:0.5;" x1="7" x2="132.582" y1="71" y2="71"/><text fill="#000000" font-family="Helvetica" font-size="14" lengthAdjust="spacing" textLength="45.5273" x="12" y="85.7803">+id : int</text><text fill="#000000" font-family="Helvetica" font-size="14" lengthAdjust="spacing" textLength="81.3135" x="12" y="99.7803">+nom : string</text><text fill="#000000" font-family="Helvetica" font-size="14" lengthAdjust="spacing" textLength="82.8721" x="12" y="113.7803">+sigle : string</text><text fill="#000000" font-family="Helvetica" font-size="14" lengthAdjust="spacing" textLength="80.541" x="12" y="127.7803">+type : string</text><text fill="#000000" font-family="Helvetica" font-size="14" lengthAdjust="spacing" textLength="103.8857" x="12" y="141.7803">+adresse : string</text><text fill="#000000" font-family="Helvetica" font-size="14" lengthAdjust="spacing" textLength="115.582" x="12" y="155.7803">+telephone : string</text><text fill="#000000" font-family="Helvetica" font-size="14" lengthAdjust="spacing" textLength="92.9961" x="12" y="169.7803">+region : string</text><line style="stroke:#0F904C;stroke-width:0.5;" x1="7" x2="132.582" y1="177" y2="177"/></g><!--class Faculte--><g id="elem_Faculte"><rect codeLine="93" fill="#EEFDF3" height="82" id="Faculte" rx="2.5" ry="2.5" style="stroke:#0F904C;stroke-width:0.5;" width="125.2305" x="67.5" y="238"/><rect fill="#0F904C" height="24" rx="2.5" ry="2.5" style="stroke:#0F904C;stroke-width:0.5;" width="125.2305" x="67.5" y="238"/><rect fill="#0F904C" height="2.5" style="stroke:#0F904C;stroke-width:0.5;" width="125.2305" x="67.5" y="259.5"/><rect codeLine="93" fill="none" height="82" id="Faculte" rx="2.5" ry="2.5" style="stroke:#0F904C;stroke-width:0.5;" width="125.2305" x="67.5" y="238"/><text fill="#0D4A2E" font-family="Helvetica" font-size="14" lengthAdjust="spacing" textLength="45.9102" x="107.1602" y="253.7803">Faculte</text><line style="stroke:#0F904C;stroke-width:0.5;" x1="68.5" x2="191.7305" y1="262" y2="262"/><text fill="#000000" font-family="Helvetica" font-size="14" lengthAdjust="spacing" textLength="45.5273" x="73.5" y="276.7803">+id : int</text><text fill="#000000" font-family="Helvetica" font-size="14" lengthAdjust="spacing" textLength="113.2305" x="73.5" y="290.7803">+universite_id : int</text><text fill="#000000" font-family="Helvetica" font-size="14" lengthAdjust="spacing" textLength="81.3135" x="73.5" y="304.7803">+nom : string</text><line style="stroke:#0F904C;stroke-width:0.5;" x1="68.5" x2="191.7305" y1="312" y2="312"/></g><!--class Filiere--><g id="elem_Filiere"><rect codeLine="99" fill="#EEFDF3" height="82" id="Filiere" rx="2.5" ry="2.5" style="stroke:#0F904C;stroke-width:0.5;" width="106.5615" x="67.5" y="436"/><rect fill="#0F904C" height="24" rx="2.5" ry="2.5" style="stroke:#0F904C;stroke-width:0.5;" width="106.5615" x="67.5" y="436"/><rect fill="#0F904C" height="2.5" style="stroke:#0F904C;stroke-width:0.5;" width="106.5615" x="67.5" y="457.5"/><rect codeLine="99" fill="none" height="82" id="Filiere" rx="2.5" ry="2.5" style="stroke:#0F904C;stroke-width:0.5;" width="106.5615" x="67.5" y="436"/><text fill="#0D4A2E" font-family="Helvetica" font-size="14" lengthAdjust="spacing" textLength="38.1172" x="101.7222" y="451.7803">Filiere</text><line style="stroke:#0F904C;stroke-width:0.5;" x1="68.5" x2="173.0615" y1="460" y2="460"/><text fill="#000000" font-family="Helvetica" font-size="14" lengthAdjust="spacing" textLength="45.5273" x="73.5" y="474.7803">+id : int</text><text fill="#000000" font-family="Helvetica" font-size="14" lengthAdjust="spacing" textLength="94.5615" x="73.5" y="488.7803">+faculte_id : int</text><text fill="#000000" font-family="Helvetica" font-size="14" lengthAdjust="spacing" textLength="81.3135" x="73.5" y="502.7803">+nom : string</text><line style="stroke:#0F904C;stroke-width:0.5;" x1="68.5" x2="173.0615" y1="510" y2="510"/></g><!--class AnneeAcademique--><g id="elem_AnneeAcademique"><rect codeLine="105" fill="#EEFDF3" height="110" id="AnneeAcademique" rx="2.5" ry="2.5" style="stroke:#0F904C;stroke-width:0.5;" width="129.1611" x="217.5" y="648"/><rect fill="#0F904C" height="24" rx="2.5" ry="2.5" style="stroke:#0F904C;stroke-width:0.5;" width="129.1611" x="217.5" y="648"/><rect fill="#0F904C" height="2.5" style="stroke:#0F904C;stroke-width:0.5;" width="129.1611" x="217.5" y="669.5"/><rect codeLine="105" fill="none" height="110" id="AnneeAcademique" rx="2.5" ry="2.5" style="stroke:#0F904C;stroke-width:0.5;" width="129.1611" x="217.5" y="648"/><text fill="#0D4A2E" font-family="Helvetica" font-size="14" lengthAdjust="spacing" textLength="118.3096" x="222.9258" y="663.7803">AnneeAcademique</text><line style="stroke:#0F904C;stroke-width:0.5;" x1="218.5" x2="345.6611" y1="672" y2="672"/><text fill="#000000" font-family="Helvetica" font-size="14" lengthAdjust="spacing" textLength="45.5273" x="223.5" y="686.7803">+id : int</text><text fill="#000000" font-family="Helvetica" font-size="14" lengthAdjust="spacing" textLength="89.8789" x="223.5" y="700.7803">+libelle : string</text><text fill="#000000" font-family="Helvetica" font-size="14" lengthAdjust="spacing" textLength="117.1611" x="223.5" y="714.7803">+date_debut : date</text><text fill="#000000" font-family="Helvetica" font-size="14" lengthAdjust="spacing" textLength="96.9131" x="223.5" y="728.7803">+date_fin : date</text><text fill="#000000" font-family="Helvetica" font-size="14" lengthAdjust="spacing" textLength="82.8857" x="223.5" y="742.7803">+active : bool</text><line style="stroke:#0F904C;stroke-width:0.5;" x1="218.5" x2="345.6611" y1="750" y2="750"/></g><!--class TypeBourse--><g id="elem_TypeBourse"><rect codeLine="113" fill="#EEFDF3" height="96" id="TypeBourse" rx="2.5" ry="2.5" style="stroke:#0F904C;stroke-width:0.5;" width="133.7822" x="365" y="655"/><rect fill="#0F904C" height="24" rx="2.5" ry="2.5" style="stroke:#0F904C;stroke-width:0.5;" width="133.7822" x="365" y="655"/><rect fill="#0F904C" height="2.5" style="stroke:#0F904C;stroke-width:0.5;" width="133.7822" x="365" y="676.5"/><rect codeLine="113" fill="none" height="96" id="TypeBourse" rx="2.5" ry="2.5" style="stroke:#0F904C;stroke-width:0.5;" width="133.7822" x="365" y="655"/><text fill="#0D4A2E" font-family="Helvetica" font-size="14" lengthAdjust="spacing" textLength="75.4824" x="394.1499" y="670.7803">TypeBourse</text><line style="stroke:#0F904C;stroke-width:0.5;" x1="366" x2="497.7822" y1="679" y2="679"/><text fill="#000000" font-family="Helvetica" font-size="14" lengthAdjust="spacing" textLength="45.5273" x="371" y="693.7803">+id : int</text><text fill="#000000" font-family="Helvetica" font-size="14" lengthAdjust="spacing" textLength="81.3135" x="371" y="707.7803">+nom : string</text><text fill="#000000" font-family="Helvetica" font-size="14" lengthAdjust="spacing" textLength="118.6719" x="371" y="721.7803">+montant : decimal</text><text fill="#000000" font-family="Helvetica" font-size="14" lengthAdjust="spacing" textLength="121.7822" x="371" y="735.7803">+description : string</text><line style="stroke:#0F904C;stroke-width:0.5;" x1="366" x2="497.7822" y1="743" y2="743"/></g><!--class DemandeBourse--><g id="elem_DemandeBourse"><rect codeLine="120" fill="#EEFDF3" height="180" id="DemandeBourse" rx="2.5" ry="2.5" style="stroke:#0F904C;stroke-width:0.5;" width="196.8369" x="186.5" y="918"/><rect fill="#0F904C" height="24" rx="2.5" ry="2.5" style="stroke:#0F904C;stroke-width:0.5;" width="196.8369" x="186.5" y="918"/><rect fill="#0F904C" height="2.5" style="stroke:#0F904C;stroke-width:0.5;" width="196.8369" x="186.5" y="939.5"/><rect codeLine="120" fill="none" height="180" id="DemandeBourse" rx="2.5" ry="2.5" style="stroke:#0F904C;stroke-width:0.5;" width="196.8369" x="186.5" y="918"/><text fill="#0D4A2E" font-family="Helvetica" font-size="14" lengthAdjust="spacing" textLength="105.0615" x="232.3877" y="933.7803">DemandeBourse</text><line style="stroke:#0F904C;stroke-width:0.5;" x1="187.5" x2="382.3369" y1="942" y2="942"/><text fill="#000000" font-family="Helvetica" font-size="14" lengthAdjust="spacing" textLength="45.5273" x="192.5" y="956.7803">+id : int</text><text fill="#000000" font-family="Helvetica" font-size="14" lengthAdjust="spacing" textLength="103.1338" x="192.5" y="970.7803">+etudiant_id : int</text><text fill="#000000" font-family="Helvetica" font-size="14" lengthAdjust="spacing" textLength="92.2441" x="192.5" y="984.7803">+annee_id : int</text><text fill="#000000" font-family="Helvetica" font-size="14" lengthAdjust="spacing" textLength="130.3682" x="192.5" y="998.7803">+type_bourse_id : int</text><text fill="#000000" font-family="Helvetica" font-size="14" lengthAdjust="spacing" textLength="140.5059" x="192.5" y="1012.7803">+date_demande : date</text><text fill="#000000" font-family="Helvetica" font-size="14" lengthAdjust="spacing" textLength="184.8369" x="192.5" y="1026.7803">+montant_demande : decimal</text><text fill="#000000" font-family="Helvetica" font-size="14" lengthAdjust="spacing" textLength="151.3682" x="192.5" y="1040.7803">+statut : StatutDemande</text><text fill="#000000" font-family="Helvetica" font-size="14" lengthAdjust="spacing" textLength="126.458" x="192.5" y="1054.7803">+observation : string</text><line style="stroke:#0F904C;stroke-width:1;" x1="187.5" x2="382.3369" y1="1062" y2="1062"/><text fill="#000000" font-family="Helvetica" font-size="14" lengthAdjust="spacing" textLength="117.0996" x="192.5" y="1076.7803">+soumettre() : void</text><text fill="#000000" font-family="Helvetica" font-size="14" lengthAdjust="spacing" textLength="149.0234" x="192.5" y="1090.7803">+changerStatut(s) : void</text></g><!--class PieceJustificative--><g id="elem_PieceJustificative"><rect codeLine="134" fill="#EEFDF3" height="124" id="PieceJustificative" rx="2.5" ry="2.5" style="stroke:#0F904C;stroke-width:0.5;" width="162.582" x="560.5" y="1172"/><rect fill="#0F904C" height="24" rx="2.5" ry="2.5" style="stroke:#0F904C;stroke-width:0.5;" width="162.582" x="560.5" y="1172"/><rect fill="#0F904C" height="2.5" style="stroke:#0F904C;stroke-width:0.5;" width="162.582" x="560.5" y="1193.5"/><rect codeLine="134" fill="none" height="124" id="PieceJustificative" rx="2.5" ry="2.5" style="stroke:#0F904C;stroke-width:0.5;" width="162.582" x="560.5" y="1172"/><text fill="#0D4A2E" font-family="Helvetica" font-size="14" lengthAdjust="spacing" textLength="107.3789" x="588.1016" y="1187.7803">PieceJustificative</text><line style="stroke:#0F904C;stroke-width:0.5;" x1="561.5" x2="722.082" y1="1196" y2="1196"/><text fill="#000000" font-family="Helvetica" font-size="14" lengthAdjust="spacing" textLength="45.5273" x="566.5" y="1210.7803">+id : int</text><text fill="#000000" font-family="Helvetica" font-size="14" lengthAdjust="spacing" textLength="111.6924" x="566.5" y="1224.7803">+demande_id : int</text><text fill="#000000" font-family="Helvetica" font-size="14" lengthAdjust="spacing" textLength="150.582" x="566.5" y="1238.7803">+nom_document : string</text><text fill="#000000" font-family="Helvetica" font-size="14" lengthAdjust="spacing" textLength="99.21" x="566.5" y="1252.7803">+chemin : string</text><text fill="#000000" font-family="Helvetica" font-size="14" lengthAdjust="spacing" textLength="125.6855" x="566.5" y="1266.7803">+statut : StatutPiece</text><text fill="#000000" font-family="Helvetica" font-size="14" lengthAdjust="spacing" textLength="119.4375" x="566.5" y="1280.7803">+motif_rejet : string</text><line style="stroke:#0F904C;stroke-width:0.5;" x1="561.5" x2="722.082" y1="1288" y2="1288"/></g><!--class Commission--><g id="elem_Commission"><rect codeLine="143" fill="#EEFDF3" height="110" id="Commission" rx="2.5" ry="2.5" style="stroke:#0F904C;stroke-width:0.5;" width="183.5479" x="428" y="790"/><rect fill="#0F904C" height="24" rx="2.5" ry="2.5" style="stroke:#0F904C;stroke-width:0.5;" width="183.5479" x="428" y="790"/><rect fill="#0F904C" height="2.5" style="stroke:#0F904C;stroke-width:0.5;" width="183.5479" x="428" y="811.5"/><rect codeLine="143" fill="none" height="110" id="Commission" rx="2.5" ry="2.5" style="stroke:#0F904C;stroke-width:0.5;" width="183.5479" x="428" y="790"/><text fill="#0D4A2E" font-family="Helvetica" font-size="14" lengthAdjust="spacing" textLength="77.0137" x="481.2671" y="805.7803">Commission</text><line style="stroke:#0F904C;stroke-width:0.5;" x1="429" x2="610.5479" y1="814" y2="814"/><text fill="#000000" font-family="Helvetica" font-size="14" lengthAdjust="spacing" textLength="45.5273" x="434" y="828.7803">+id : int</text><text fill="#000000" font-family="Helvetica" font-size="14" lengthAdjust="spacing" textLength="81.3135" x="434" y="842.7803">+nom : string</text><text fill="#000000" font-family="Helvetica" font-size="14" lengthAdjust="spacing" textLength="128.8301" x="434" y="856.7803">+date_reunion : date</text><text fill="#000000" font-family="Helvetica" font-size="14" lengthAdjust="spacing" textLength="121.7822" x="434" y="870.7803">+description : string</text><line style="stroke:#0F904C;stroke-width:1;" x1="429" x2="610.5479" y1="878" y2="878"/><text fill="#000000" font-family="Helvetica" font-size="14" lengthAdjust="spacing" textLength="171.5479" x="434" y="892.7803">+affecterMembres(m) : void</text></g><!--class Decision--><g id="elem_Decision"><rect codeLine="152" fill="#EEFDF3" height="166" id="Decision" rx="2.5" ry="2.5" style="stroke:#0F904C;stroke-width:0.5;" width="188.2646" x="354" y="1151"/><rect fill="#0F904C" height="24" rx="2.5" ry="2.5" style="stroke:#0F904C;stroke-width:0.5;" width="188.2646" x="354" y="1151"/><rect fill="#0F904C" height="2.5" style="stroke:#0F904C;stroke-width:0.5;" width="188.2646" x="354" y="1172.5"/><rect codeLine="152" fill="none" height="166" id="Decision" rx="2.5" ry="2.5" style="stroke:#0F904C;stroke-width:0.5;" width="188.2646" x="354" y="1151"/><text fill="#0D4A2E" font-family="Helvetica" font-size="14" lengthAdjust="spacing" textLength="53.6895" x="421.2876" y="1166.7803">Decision</text><line style="stroke:#0F904C;stroke-width:0.5;" x1="355" x2="541.2646" y1="1175" y2="1175"/><text fill="#000000" font-family="Helvetica" font-size="14" lengthAdjust="spacing" textLength="45.5273" x="360" y="1189.7803">+id : int</text><text fill="#000000" font-family="Helvetica" font-size="14" lengthAdjust="spacing" textLength="127.2168" x="360" y="1203.7803">+commission_id : int</text><text fill="#000000" font-family="Helvetica" font-size="14" lengthAdjust="spacing" textLength="111.6924" x="360" y="1217.7803">+demande_id : int</text><text fill="#000000" font-family="Helvetica" font-size="14" lengthAdjust="spacing" textLength="105.4443" x="360" y="1231.7803">+decision : string</text><text fill="#000000" font-family="Helvetica" font-size="14" lengthAdjust="spacing" textLength="126.458" x="360" y="1245.7803">+observation : string</text><text fill="#000000" font-family="Helvetica" font-size="14" lengthAdjust="spacing" textLength="176.2646" x="360" y="1259.7803">+montant_accorde : decimal</text><text fill="#000000" font-family="Helvetica" font-size="14" lengthAdjust="spacing" textLength="133.4922" x="360" y="1273.7803">+date_decision : date</text><line style="stroke:#0F904C;stroke-width:1;" x1="355" x2="541.2646" y1="1281" y2="1281"/><text fill="#000000" font-family="Helvetica" font-size="14" lengthAdjust="spacing" textLength="159.9063" x="360" y="1295.7803">+montantPaye() : decimal</text><text fill="#000000" font-family="Helvetica" font-size="14" lengthAdjust="spacing" textLength="154.4443" x="360" y="1309.7803">+resteAPayer() : decimal</text></g><!--class Paiement--><g id="elem_Paiement"><rect codeLine="165" fill="#EEFDF3" height="138" id="Paiement" rx="2.5" ry="2.5" style="stroke:#0F904C;stroke-width:0.5;" width="166.4785" x="365" y="1370"/><rect fill="#0F904C" height="24" rx="2.5" ry="2.5" style="stroke:#0F904C;stroke-width:0.5;" width="166.4785" x="365" y="1370"/><rect fill="#0F904C" height="2.5" style="stroke:#0F904C;stroke-width:0.5;" width="166.4785" x="365" y="1391.5"/><rect codeLine="165" fill="none" height="138" id="Paiement" rx="2.5" ry="2.5" style="stroke:#0F904C;stroke-width:0.5;" width="166.4785" x="365" y="1370"/><text fill="#0D4A2E" font-family="Helvetica" font-size="14" lengthAdjust="spacing" textLength="59.1445" x="418.667" y="1385.7803">Paiement</text><line style="stroke:#0F904C;stroke-width:0.5;" x1="366" x2="530.4785" y1="1394" y2="1394"/><text fill="#000000" font-family="Helvetica" font-size="14" lengthAdjust="spacing" textLength="45.5273" x="371" y="1408.7803">+id : int</text><text fill="#000000" font-family="Helvetica" font-size="14" lengthAdjust="spacing" textLength="104.6787" x="371" y="1422.7803">+decision_id : int</text><text fill="#000000" font-family="Helvetica" font-size="14" lengthAdjust="spacing" textLength="118.6719" x="371" y="1436.7803">+montant : decimal</text><text fill="#000000" font-family="Helvetica" font-size="14" lengthAdjust="spacing" textLength="139.7197" x="371" y="1450.7803">+date_paiement : date</text><text fill="#000000" font-family="Helvetica" font-size="14" lengthAdjust="spacing" textLength="154.4785" x="371" y="1464.7803">+mode_paiement : string</text><text fill="#000000" font-family="Helvetica" font-size="14" lengthAdjust="spacing" textLength="113.2236" x="371" y="1478.7803">+reference : string</text><text fill="#000000" font-family="Helvetica" font-size="14" lengthAdjust="spacing" textLength="149.8096" x="371" y="1492.7803">+statut : StatutPaiement</text><line style="stroke:#0F904C;stroke-width:0.5;" x1="366" x2="530.4785" y1="1500" y2="1500"/></g><!--class Reclamation--><g id="elem_Reclamation"><rect codeLine="175" fill="#EEFDF3" height="152" id="Reclamation" rx="2.5" ry="2.5" style="stroke:#0F904C;stroke-width:0.5;" width="180.4785" x="33" y="1158"/><rect fill="#0F904C" height="24" rx="2.5" ry="2.5" style="stroke:#0F904C;stroke-width:0.5;" width="180.4785" x="33" y="1158"/><rect fill="#0F904C" height="2.5" style="stroke:#0F904C;stroke-width:0.5;" width="180.4785" x="33" y="1179.5"/><rect codeLine="175" fill="none" height="152" id="Reclamation" rx="2.5" ry="2.5" style="stroke:#0F904C;stroke-width:0.5;" width="180.4785" x="33" y="1158"/><text fill="#0D4A2E" font-family="Helvetica" font-size="14" lengthAdjust="spacing" textLength="77.8135" x="84.3325" y="1173.7803">Reclamation</text><line style="stroke:#0F904C;stroke-width:0.5;" x1="34" x2="212.4785" y1="1182" y2="1182"/><text fill="#000000" font-family="Helvetica" font-size="14" lengthAdjust="spacing" textLength="45.5273" x="39" y="1196.7803">+id : int</text><text fill="#000000" font-family="Helvetica" font-size="14" lengthAdjust="spacing" textLength="103.1338" x="39" y="1210.7803">+etudiant_id : int</text><text fill="#000000" font-family="Helvetica" font-size="14" lengthAdjust="spacing" textLength="111.6924" x="39" y="1224.7803">+demande_id : int</text><text fill="#000000" font-family="Helvetica" font-size="14" lengthAdjust="spacing" textLength="84.4375" x="39" y="1238.7803">+objet : string</text><text fill="#000000" font-family="Helvetica" font-size="14" lengthAdjust="spacing" textLength="121.7822" x="39" y="1252.7803">+description : string</text><text fill="#000000" font-family="Helvetica" font-size="14" lengthAdjust="spacing" textLength="115.5615" x="39" y="1266.7803">+document : string</text><text fill="#000000" font-family="Helvetica" font-size="14" lengthAdjust="spacing" textLength="168.4785" x="39" y="1280.7803">+statut : StatutReclamation</text><text fill="#000000" font-family="Helvetica" font-size="14" lengthAdjust="spacing" textLength="104.6719" x="39" y="1294.7803">+reponse : string</text><line style="stroke:#0F904C;stroke-width:0.5;" x1="34" x2="212.4785" y1="1302" y2="1302"/></g><!--class Notification--><g id="elem_Notification"><rect codeLine="186" fill="#EEFDF3" height="124" id="Notification" rx="2.5" ry="2.5" style="stroke:#0F904C;stroke-width:0.5;" width="125.2305" x="718.5" y="641"/><rect fill="#0F904C" height="24" rx="2.5" ry="2.5" style="stroke:#0F904C;stroke-width:0.5;" width="125.2305" x="718.5" y="641"/><rect fill="#0F904C" height="2.5" style="stroke:#0F904C;stroke-width:0.5;" width="125.2305" x="718.5" y="662.5"/><rect codeLine="186" fill="none" height="124" id="Notification" rx="2.5" ry="2.5" style="stroke:#0F904C;stroke-width:0.5;" width="125.2305" x="718.5" y="641"/><text fill="#0D4A2E" font-family="Helvetica" font-size="14" lengthAdjust="spacing" textLength="69.2549" x="746.4878" y="656.7803">Notification</text><line style="stroke:#0F904C;stroke-width:0.5;" x1="719.5" x2="842.7305" y1="665" y2="665"/><text fill="#000000" font-family="Helvetica" font-size="14" lengthAdjust="spacing" textLength="45.5273" x="724.5" y="679.7803">+id : int</text><text fill="#000000" font-family="Helvetica" font-size="14" lengthAdjust="spacing" textLength="113.2305" x="724.5" y="693.7803">+utilisateur_id : int</text><text fill="#000000" font-family="Helvetica" font-size="14" lengthAdjust="spacing" textLength="77.417" x="724.5" y="707.7803">+titre : string</text><text fill="#000000" font-family="Helvetica" font-size="14" lengthAdjust="spacing" textLength="103.8994" x="724.5" y="721.7803">+contenu : string</text><text fill="#000000" font-family="Helvetica" font-size="14" lengthAdjust="spacing" textLength="80.541" x="724.5" y="735.7803">+type : string</text><text fill="#000000" font-family="Helvetica" font-size="14" lengthAdjust="spacing" textLength="57.21" x="724.5" y="749.7803">+lu : bool</text><line style="stroke:#0F904C;stroke-width:0.5;" x1="719.5" x2="842.7305" y1="757" y2="757"/></g><path d="M481.2078,510.5681 C404.7149,538.4205 296.1269,582.1634 208,634 C205.1909,635.6523 202.3713,637.385 199.5549,639.1802 " fill="none" style="stroke:#0D4A2E;stroke-width:1;"/><text fill="#000000" font-family="Helvetica" font-size="13" lengthAdjust="spacing" textLength="49.1499" x="268" y="611.0103">poss&#232;de</text><text fill="#000000" font-family="Helvetica" font-size="13" lengthAdjust="spacing" textLength="21.6836" x="200.5549" y="635.1905">0..1</text><text fill="#000000" font-family="Helvetica" font-size="13" lengthAdjust="spacing" textLength="7.23" x="473.2078" y="506.5783">1</text><path d="M600.4848,581.1488 C606.9943,609.7397 613.6801,639.1046 618.831,661.7285 " fill="none" style="stroke:#0D4A2E;stroke-width:1;"/><text fill="#000000" font-family="Helvetica" font-size="13" lengthAdjust="spacing" textLength="7.23" x="610" y="611.0103">a</text><text fill="#000000" font-family="Helvetica" font-size="13" lengthAdjust="spacing" textLength="5.0591" x="612.831" y="657.7387">*</text><text fill="#000000" font-family="Helvetica" font-size="13" lengthAdjust="spacing" textLength="5.0591" x="594.4848" y="592.1591">*</text><path d="M628.9295,744.2361 C630.3242,804.6037 632.9323,917.4997 634.2283,973.5946 " fill="none" style="stroke:#0D4A2E;stroke-width:1;"/><text fill="#000000" font-family="Helvetica" font-size="13" lengthAdjust="spacing" textLength="46.249" x="635" y="848.5103">accorde</text><text fill="#000000" font-family="Helvetica" font-size="13" lengthAdjust="spacing" textLength="5.0591" x="628.2283" y="969.6048">*</text><text fill="#000000" font-family="Helvetica" font-size="13" lengthAdjust="spacing" textLength="5.0591" x="622.9295" y="755.2463">*</text><path d="M670.9391,581.1488 C689.5527,601.5873 708.5265,622.4213 725.3604,640.9055 " fill="none" style="stroke:#0D4A2E;stroke-width:1;"/><text fill="#000000" font-family="Helvetica" font-size="13" lengthAdjust="spacing" textLength="31.7891" x="699" y="611.0103">re&#231;oit</text><text fill="#000000" font-family="Helvetica" font-size="13" lengthAdjust="spacing" textLength="5.0591" x="719.3604" y="636.9157">*</text><text fill="#000000" font-family="Helvetica" font-size="13" lengthAdjust="spacing" textLength="7.23" x="662.9391" y="592.1591">1</text><path d="M537.256,581.0495 C535.644,587.0738 534.2043,593.0861 533,599 C519.8259,663.6938 517.8391,739.8626 518.322,789.8946 " fill="none" style="stroke:#0D4A2E;stroke-width:1;"/><text fill="#000000" font-family="Helvetica" font-size="13" lengthAdjust="spacing" textLength="65.749" x="535" y="611.0103">membre de</text><text fill="#000000" font-family="Helvetica" font-size="13" lengthAdjust="spacing" textLength="5.0591" x="512.322" y="785.9049">*</text><text fill="#000000" font-family="Helvetica" font-size="13" lengthAdjust="spacing" textLength="5.0591" x="531.256" y="592.0597">*</text><path d="M95.4454,185.2785 C102.0888,203.105 109.0373,221.7501 114.9466,237.6067 " fill="none" style="stroke:#0D4A2E;stroke-width:1;"/><text fill="#000000" font-family="Helvetica" font-size="13" lengthAdjust="spacing" textLength="52.0381" x="110" y="215.0103">regroupe</text><text fill="#000000" font-family="Helvetica" font-size="13" lengthAdjust="spacing" textLength="5.0591" x="108.9466" y="233.6169">*</text><text fill="#000000" font-family="Helvetica" font-size="13" lengthAdjust="spacing" textLength="7.23" x="87.4454" y="196.2887">1</text><path d="M128.157,320.1365 C126.6039,353.9595 124.3929,402.1093 122.8405,435.9172 " fill="none" style="stroke:#0D4A2E;stroke-width:1;"/><text fill="#000000" font-family="Helvetica" font-size="13" lengthAdjust="spacing" textLength="46.979" x="130" y="350.0103">propose</text><text fill="#000000" font-family="Helvetica" font-size="13" lengthAdjust="spacing" textLength="5.0591" x="116.8405" y="431.9274">*</text><text fill="#000000" font-family="Helvetica" font-size="13" lengthAdjust="spacing" textLength="7.23" x="120.157" y="331.1467">1</text><path d="M57.2137,185.0382 C42.4964,276.5401 24.3808,443.6318 58,581 C62.3915,598.9438 69.9555,617.186 78.3511,633.8791 " fill="none" style="stroke:#0D4A2E;stroke-width:1;"/><text fill="#000000" font-family="Helvetica" font-size="13" lengthAdjust="spacing" textLength="50.5845" x="43" y="350.0103">accueille</text><text fill="#000000" font-family="Helvetica" font-size="13" lengthAdjust="spacing" textLength="5.0591" x="72.3511" y="629.8893">*</text><text fill="#000000" font-family="Helvetica" font-size="13" lengthAdjust="spacing" textLength="7.23" x="49.2137" y="196.0484">1</text><path d="M171.9549,320.0269 C175.9825,325.6802 179.4935,331.7198 182,338 C197.9751,378.0273 254.2947,285.5185 183,581 C178.6816,598.8976 171.239,617.1218 162.9769,633.8121 " fill="none" style="stroke:#0D4A2E;stroke-width:1;"/><text fill="#000000" font-family="Helvetica" font-size="13" lengthAdjust="spacing" textLength="5.0591" x="156.9769" y="629.8223">*</text><text fill="#000000" font-family="Helvetica" font-size="13" lengthAdjust="spacing" textLength="7.23" x="163.9549" y="331.0372">1</text><path d="M121,518.0467 C121,550.136 121,595.8911 121,633.7398 " fill="none" style="stroke:#0D4A2E;stroke-width:1;"/><text fill="#000000" font-family="Helvetica" font-size="13" lengthAdjust="spacing" textLength="33.9473" x="123" y="611.0103">inscrit</text><text fill="#000000" font-family="Helvetica" font-size="13" lengthAdjust="spacing" textLength="5.0591" x="115" y="629.7501">*</text><text fill="#000000" font-family="Helvetica" font-size="13" lengthAdjust="spacing" textLength="7.23" x="113" y="529.057">1</text><path d="M158.0093,772.3769 C181.2968,815.4021 211.5962,871.3819 236.7579,917.8697 " fill="none" style="stroke:#0D4A2E;stroke-width:1;"/><text fill="#000000" font-family="Helvetica" font-size="13" lengthAdjust="spacing" textLength="42.6499" x="225" y="848.5103">d&#233;pose</text><text fill="#000000" font-family="Helvetica" font-size="13" lengthAdjust="spacing" textLength="5.0591" x="230.7579" y="913.88">*</text><text fill="#000000" font-family="Helvetica" font-size="13" lengthAdjust="spacing" textLength="7.23" x="150.0093" y="783.3872">1</text><path d="M388.936,751.0168 C379.2123,763.1416 369.5464,776.5746 362,790 C349.2436,812.6943 329.5351,868.4693 313.251,917.7881 " fill="none" style="stroke:#0D4A2E;stroke-width:1;"/><text fill="#000000" font-family="Helvetica" font-size="13" lengthAdjust="spacing" textLength="53.479" x="364" y="848.5103">concerne</text><text fill="#000000" font-family="Helvetica" font-size="13" lengthAdjust="spacing" textLength="5.0591" x="307.251" y="913.7984">*</text><text fill="#000000" font-family="Helvetica" font-size="13" lengthAdjust="spacing" textLength="7.23" x="380.936" y="762.0271">1</text><path d="M282.5363,758.1703 C282.9754,802.5131 283.6054,866.1473 284.1185,917.9635 " fill="none" style="stroke:#0D4A2E;stroke-width:1;"/><text fill="#000000" font-family="Helvetica" font-size="13" lengthAdjust="spacing" textLength="26.019" x="286" y="848.5103">pour</text><text fill="#000000" font-family="Helvetica" font-size="13" lengthAdjust="spacing" textLength="5.0591" x="278.1185" y="913.9737">*</text><text fill="#000000" font-family="Helvetica" font-size="13" lengthAdjust="spacing" textLength="7.23" x="274.5363" y="769.1806">1</text><path d="M383.7416,1054.5216 C435.344,1080.067 498.5075,1114.1645 551,1151 C560.0522,1157.3522 569.1815,1164.5071 577.9833,1171.8765 " fill="none" style="stroke:#0D4A2E;stroke-width:1;"/><text fill="#000000" font-family="Helvetica" font-size="13" lengthAdjust="spacing" textLength="66.479" x="526" y="1128.0103">justifi&#233;e par</text><text fill="#000000" font-family="Helvetica" font-size="13" lengthAdjust="spacing" textLength="5.0591" x="571.9833" y="1167.8868">*</text><text fill="#000000" font-family="Helvetica" font-size="13" lengthAdjust="spacing" textLength="7.23" x="384.7416" y="1050.5318">1</text><path d="M516.7894,900.0594 C512.5096,958.232 503.131,1053.1554 484,1133 C482.6027,1138.8318 480.9799,1144.7946 479.2115,1150.7611 " fill="none" style="stroke:#0D4A2E;stroke-width:1;"/><text fill="#000000" font-family="Helvetica" font-size="13" lengthAdjust="spacing" textLength="26.019" x="518" y="1011.5103">rend</text><text fill="#000000" font-family="Helvetica" font-size="13" lengthAdjust="spacing" textLength="5.0591" x="473.2115" y="1146.7713">*</text><text fill="#000000" font-family="Helvetica" font-size="13" lengthAdjust="spacing" textLength="7.23" x="508.7894" y="911.0696">1</text><path d="M312.5503,1098.1326 C318.083,1110.3523 324.5396,1122.3445 332,1133 C338.405,1142.1481 345.8306,1150.9862 353.7696,1159.3697 " fill="none" style="stroke:#0D4A2E;stroke-width:1;"/><text fill="#000000" font-family="Helvetica" font-size="13" lengthAdjust="spacing" textLength="49.8735" x="334" y="1128.0103">aboutit &#224;</text><text fill="#000000" font-family="Helvetica" font-size="13" lengthAdjust="spacing" textLength="7.23" x="345.7696" y="1155.3799">1</text><text fill="#000000" font-family="Helvetica" font-size="13" lengthAdjust="spacing" textLength="7.23" x="304.5503" y="1109.1428">1</text><path d="M448,1317.2752 C448,1334.75 448,1353.014 448,1369.8917 " fill="none" style="stroke:#0D4A2E;stroke-width:1;"/><text fill="#000000" font-family="Helvetica" font-size="13" lengthAdjust="spacing" textLength="40.479" x="450" y="1347.0103">g&#233;n&#232;re</text><text fill="#000000" font-family="Helvetica" font-size="13" lengthAdjust="spacing" textLength="5.0591" x="442" y="1365.9019">*</text><text fill="#000000" font-family="Helvetica" font-size="13" lengthAdjust="spacing" textLength="7.23" x="440" y="1328.2855">1</text><path d="M121.2574,772.0745 C121.6324,871.2774 122.3268,1054.9333 122.7162,1157.9388 " fill="none" style="stroke:#0D4A2E;stroke-width:1;"/><text fill="#000000" font-family="Helvetica" font-size="13" lengthAdjust="spacing" textLength="43.3481" x="125" y="1011.5103">formule</text><text fill="#000000" font-family="Helvetica" font-size="13" lengthAdjust="spacing" textLength="5.0591" x="116.7162" y="1153.949">*</text><text fill="#000000" font-family="Helvetica" font-size="13" lengthAdjust="spacing" textLength="7.23" x="113.2574" y="783.0848">1</text><path d="M220.5078,1098.1744 C206.2137,1117.9391 191.2032,1138.6943 177.3608,1157.8344 " fill="none" style="stroke:#0D4A2E;stroke-width:1;"/><text fill="#000000" font-family="Helvetica" font-size="13" lengthAdjust="spacing" textLength="52.749" x="206" y="1128.0103">vis&#233;e par</text><text fill="#000000" font-family="Helvetica" font-size="13" lengthAdjust="spacing" textLength="19.5127" x="157.3608" y="1153.8446">0..*</text><text fill="#000000" font-family="Helvetica" font-size="13" lengthAdjust="spacing" textLength="7.23" x="212.5078" y="1109.1846">1</text><polygon fill="#0D4A2E" points="284.2738,1171.6776,288.3139,1162.6956,284.2961,1166.6777,280.314,1162.6599,284.2738,1171.6776" style="stroke:#0D4A2E;stroke-width:1;"/><path d="M284.6019,1098.1744 C284.4919,1122.8193 284.4018,1143.0042 284.3005,1165.6777 " fill="none" style="stroke:#0D4A2E;stroke-width:1;stroke-dasharray:7.0,7.0;"/><polygon fill="#0D4A2E" points="448,1544.7328,452,1535.7328,448,1539.7328,444,1535.7328,448,1544.7328" style="stroke:#0D4A2E;stroke-width:1;"/><path d="M448,1508.2541 C448,1520.7413 448,1527.3971 448,1538.7328 " fill="none" style="stroke:#0D4A2E;stroke-width:1;stroke-dasharray:7.0,7.0;"/><polygon fill="#0D4A2E" points="642,1397.7867,646,1388.7867,642,1392.7867,638,1388.7867,642,1397.7867" style="stroke:#0D4A2E;stroke-width:1;"/><path d="M642,1296.182 C642,1329.1032 642,1362.7816 642,1391.7867 " fill="none" style="stroke:#0D4A2E;stroke-width:1;stroke-dasharray:7.0,7.0;"/><polygon fill="#0D4A2E" points="123,1390.9654,127,1381.9654,123,1385.9654,119,1381.9654,123,1390.9654" style="stroke:#0D4A2E;stroke-width:1;"/><path d="M123,1310.013 C123,1337.1194 123,1360.9357 123,1384.9654 " fill="none" style="stroke:#0D4A2E;stroke-width:1;stroke-dasharray:7.0,7.0;"/><!--SRC=[ZLVDRXit4BxlKx3k8NQD64wRImNKW6ojcXIEOrXshmB57KbCTiajV-IwHO0-H1-WjyRFeJVfatJ8NQt85MLR1sbtPZZyPkRZ3FLDhUYYegIa3z8QeYimLD3CS5C26N6wKBIgW1H0M4cr1at- - -jlSbrI0tEfK3Fw-JpFClsPYvgYBPbHzdcXf1N5XIob8j-E_IUmq4jQo7ik5cHEIms1fe0vjQKPIs6kAFe-U0Vb2Wndz22mya38dnaXv_szydmy6l_WD58Le5hfwVZ7qxSNA1qg9Uytmj7RuVSv2jrkVTaxeBXyntthw4iVpD0OnMVMm7icnOJ_0UGqMtANCwvO2LdsYloq-o7vrTs7_6Pu-_xZrIHba86m5PaOQgmPGKK5UlHX8oPUbbBWyqJQYcCI2Sd5T0MApp5RXdlTa36e3JZb3Sojza_Nz05_lsIXyslAeG9XlFSQ3V07n9GQWqBtGeMmvSug3gm1b8Uslz8IGsys_GHcPxCRm9nL7gDV_D4YRDD6mAHL6Xzl5UKDyZ4WoxoFT18lBeUJIPxENyEKEyDBhf6mLlaDZtb11eGBuvw5hF15O_t4mhtN2leYp3ml8uc14kgb510lNKeZ8maj5E2PYQqGqZsoCpPaXizHCfEoxBPioma59XTr1KPWUELoylfr2_r2LdK9vl0eyhQa-aQMSAZmwsZZ5HFOfCEf4dbmvorqih1K5TDOtFcung9mhJSbVC9JjoGtjk2qvLYqm6xhCmtbo1756V8kmkNIWB1mToeOj7bn2Ws_krUsfCgzAbWuUE5ImLT0RGBRdTCeZOnxdY2QBtg8p4CDpvOzJPa-o0xHc6BWAJYsWphTYtBh1HCBAk5bthX_WOkX4013Xksmuh_PXAkIpw1CrQW0x8X1VRnmpaKWShHVmGv3Rp6XvwuHlA0S5NPlnofq2enNr1-V0ZHJl3RftBQjTDyEq18rIWvrQOWahkhJcVSHoTlOcswz3RN56MgsUBLlZ2YBUhtJo9a6jQAcH-Mc0MZi_O2Z1_pvNqbUE2aU0B40rRWwr9rgUtXTt_x5QjFEYbKY2ItCFa6cXMJMJugm1co9v8YFMYyYlsMJ1jnrgjnWI5G6szd-jj8hlC-p0ZmFCgHKilIRXD7v79W1zG6g6HxHmsetEIEiIXe0wy1DdyjKiN4I0jvJoeuPb35tQUankM5JvwuDimcdNUackcT0i0wZCp1q6XMfjYG8H_vn2dpSYvF7p86hDuv2hXUHFEntS-n7JT_UJvPsPJ2oUbU6vyzhgYfo5h5kFrcEaopleGmmDP7LKkZKuBkIfhkKlNpuuGLSnLd2goLUiUpJewUqGJTDNvXkyiidhfpXPUdWpG4oZHoSdfpWKpV01wIMMg-_8bVFOlll6dlyyPUC0Q5euHy3LN1tG8EMz6V9ZT4wojw0A5Z_AxdPlt7GGWQaykUSUFzPCEG3_vj1wroxktxjR3V2qAuTfHYyaXY_Xvpq6EG9exF0tNHC-jnOPXldQIzSE9QwcBDE6bZ6umnFuVgnnHVCqIViaLSCb70B-iF-YLKrFk2AM1pO9uRCW7ngtjUFWFyotF8iA5UqMTVmi5iKU_Tv4vbIdCPuRCZw7x-WbOUOjYrfiNuKwwyAzYKrx3W3ulxfMb_5D0uy83jhLbm7SRuYbno49eulfCH_qRY_hTQFofjhSkYgXg6wEwrsXCMJJHTmrDlmvEIiTqVeOjggklwPg45WvKToY7ch2tlR_m00]--></g></svg>